# This file uses centimeters as units for non-parametric coordinates.

mtllib Dragon_Club_SmallWalls.mtl
g default
v 27.443900 -0.117822 63.224023
v 27.443900 -0.117822 62.813169
v 27.443900 7.154268 63.224023
v 27.443900 7.154268 62.813169
v 20.420729 7.154268 63.224023
v 20.420729 7.154268 62.813169
v 20.420729 -0.117822 63.224023
v 20.420729 -0.117822 62.813169
v 34.515944 -0.117822 73.694484
v 34.926797 -0.117822 73.694484
v 34.515944 7.154268 73.694484
v 34.926797 7.154268 73.694484
v 34.515944 7.154268 64.940822
v 34.926797 7.154268 64.940822
v 34.515944 -0.117822 64.940822
v 34.926797 -0.117822 64.940822
v 48.063227 -0.117822 73.694484
v 48.474079 -0.117822 73.694484
v 48.063227 7.154268 73.694484
v 48.474079 7.154268 73.694484
v 48.063227 7.154268 64.940822
v 48.474079 7.154268 64.940822
v 48.063227 -0.117822 64.940822
v 48.474079 -0.117822 64.940822
v 61.423804 -0.117822 73.694484
v 61.834658 -0.117822 73.694484
v 61.423804 7.154268 73.694484
v 61.834658 7.154268 73.694484
v 61.423804 7.154268 64.940822
v 61.834658 7.154268 64.940822
v 61.423804 -0.117822 64.940822
v 61.834658 -0.117822 64.940822
v 3.239725 -2.369552 15.590236
v 3.239725 -2.369552 14.618384
v 6.982498 -2.369552 15.590236
v 6.982498 -2.369552 14.618384
v 6.982498 7.004060 15.590236
v 6.982498 7.004060 14.618384
v 3.239725 7.004060 15.590236
v 3.239725 7.004060 14.618384
vt 0.257500 0.629208
vt 0.271538 0.629208
vt 0.271538 0.877681
vt 0.257500 0.877681
vt 0.924041 0.608026
vt 0.938079 0.608026
vt 0.938079 0.847994
vt 0.924041 0.847994
vt 0.292976 0.877681
vt 0.278938 0.877681
vt 0.278938 0.629208
vt 0.292976 0.629208
vt 0.959518 0.847994
vt 0.945480 0.847994
vt 0.945480 0.608026
vt 0.959518 0.608026
vt 0.852177 0.856499
vt 0.612209 0.856499
vt 0.612209 0.608026
vt 0.852177 0.608026
vt 0.300377 0.629208
vt 0.540344 0.629208
vt 0.540344 0.877681
vt 0.300377 0.877681
vt 0.547894 0.608026
vt 0.561932 0.608026
vt 0.561932 0.856499
vt 0.547894 0.856499
vt 0.312070 0.001853
vt 0.326108 0.001853
vt 0.326108 0.300948
vt 0.312070 0.300948
vt 0.859726 0.608026
vt 0.873764 0.608026
vt 0.873764 0.856499
vt 0.859726 0.856499
vt 0.729362 0.304940
vt 0.743400 0.304940
vt 0.743400 0.604035
vt 0.729362 0.604035
vt 0.333509 0.300948
vt 0.333509 0.001853
vt 0.581981 0.001853
vt 0.581981 0.300948
vt 0.434407 0.604035
vt 0.434407 0.304940
vt 0.682880 0.304940
vt 0.682880 0.604035
vt 0.569332 0.608026
vt 0.583370 0.608026
vt 0.583370 0.856499
vt 0.569332 0.856499
vt 0.588822 0.001853
vt 0.602860 0.001853
vt 0.602860 0.300948
vt 0.588822 0.300948
vt 0.881164 0.608026
vt 0.895203 0.608026
vt 0.895203 0.856499
vt 0.881164 0.856499
vt 0.709189 0.304940
vt 0.723227 0.304940
vt 0.723227 0.604035
vt 0.709189 0.604035
vt 0.610260 0.300948
vt 0.610260 0.001853
vt 0.858733 0.001853
vt 0.858733 0.300948
vt 0.179799 0.625217
vt 0.179799 0.326122
vt 0.428272 0.326122
vt 0.428272 0.625217
vt 0.590771 0.608026
vt 0.604809 0.608026
vt 0.604809 0.856499
vt 0.590771 0.856499
vt 0.865573 0.001853
vt 0.879611 0.001853
vt 0.879611 0.300948
vt 0.865573 0.300948
vt 0.902603 0.608026
vt 0.916641 0.608026
vt 0.916641 0.856499
vt 0.902603 0.856499
vt 0.689015 0.304940
vt 0.703053 0.304940
vt 0.703053 0.604035
vt 0.689015 0.604035
vt 0.749535 0.604035
vt 0.749535 0.304940
vt 0.998008 0.304940
vt 0.998008 0.604035
vt 0.001992 0.928303
vt 0.001992 0.629208
vt 0.250465 0.629208
vt 0.250465 0.928303
vt 0.001992 0.001853
vt 0.035198 0.001853
vt 0.001992 0.322130
vt 0.035198 0.322130
vt 0.964802 0.608026
vt 0.998008 0.608026
vt 0.964802 0.735909
vt 0.998008 0.735909
vt 0.177593 0.322130
vt 0.177593 0.001853
vt 0.305476 0.322130
vt 0.305476 0.001853
vt 0.043115 0.322130
vt 0.043115 0.001853
vt 0.170998 0.322130
vt 0.170998 0.001853
vn 1.000000 0.000000 0.000000
vn 1.000000 0.000000 0.000000
vn 1.000000 0.000000 0.000000
vn 1.000000 0.000000 0.000000
vn 0.000000 1.000000 0.000000
vn 0.000000 1.000000 0.000000
vn 0.000000 1.000000 0.000000
vn 0.000000 1.000000 0.000000
vn -1.000000 0.000000 0.000000
vn -1.000000 0.000000 0.000000
vn -1.000000 0.000000 0.000000
vn -1.000000 0.000000 0.000000
vn 0.000000 -1.000000 0.000000
vn 0.000000 -1.000000 0.000000
vn 0.000000 -1.000000 0.000000
vn 0.000000 -1.000000 0.000000
vn 0.000000 0.000000 -1.000000
vn 0.000000 0.000000 -1.000000
vn 0.000000 0.000000 -1.000000
vn 0.000000 0.000000 -1.000000
vn 0.000000 0.000000 1.000000
vn 0.000000 0.000000 1.000000
vn 0.000000 0.000000 1.000000
vn 0.000000 0.000000 1.000000
vn 0.000000 0.000000 1.000000
vn 0.000000 0.000000 1.000000
vn 0.000000 0.000000 1.000000
vn 0.000000 0.000000 1.000000
vn 0.000000 1.000000 0.000000
vn 0.000000 1.000000 0.000000
vn 0.000000 1.000000 0.000000
vn 0.000000 1.000000 0.000000
vn 0.000000 0.000000 -1.000000
vn 0.000000 0.000000 -1.000000
vn 0.000000 0.000000 -1.000000
vn 0.000000 0.000000 -1.000000
vn 0.000000 -1.000000 0.000000
vn 0.000000 -1.000000 0.000000
vn 0.000000 -1.000000 0.000000
vn 0.000000 -1.000000 0.000000
vn 1.000000 0.000000 0.000000
vn 1.000000 0.000000 0.000000
vn 1.000000 0.000000 0.000000
vn 1.000000 0.000000 0.000000
vn -1.000000 0.000000 0.000000
vn -1.000000 0.000000 0.000000
vn -1.000000 0.000000 0.000000
vn -1.000000 0.000000 0.000000
vn 0.000000 0.000000 1.000000
vn 0.000000 0.000000 1.000000
vn 0.000000 0.000000 1.000000
vn 0.000000 0.000000 1.000000
vn 0.000000 1.000000 0.000000
vn 0.000000 1.000000 0.000000
vn 0.000000 1.000000 0.000000
vn 0.000000 1.000000 0.000000
vn 0.000000 0.000000 -1.000000
vn 0.000000 0.000000 -1.000000
vn 0.000000 0.000000 -1.000000
vn 0.000000 0.000000 -1.000000
vn 0.000000 -1.000000 0.000000
vn 0.000000 -1.000000 0.000000
vn 0.000000 -1.000000 0.000000
vn 0.000000 -1.000000 0.000000
vn 1.000000 0.000000 0.000000
vn 1.000000 0.000000 0.000000
vn 1.000000 0.000000 0.000000
vn 1.000000 0.000000 0.000000
vn -1.000000 0.000000 0.000000
vn -1.000000 0.000000 0.000000
vn -1.000000 0.000000 0.000000
vn -1.000000 0.000000 0.000000
vn 0.000000 0.000000 1.000000
vn 0.000000 0.000000 1.000000
vn 0.000000 0.000000 1.000000
vn 0.000000 0.000000 1.000000
vn 0.000000 1.000000 0.000000
vn 0.000000 1.000000 0.000000
vn 0.000000 1.000000 0.000000
vn 0.000000 1.000000 0.000000
vn 0.000000 0.000000 -1.000000
vn 0.000000 0.000000 -1.000000
vn 0.000000 0.000000 -1.000000
vn 0.000000 0.000000 -1.000000
vn 0.000000 -1.000000 0.000000
vn 0.000000 -1.000000 0.000000
vn 0.000000 -1.000000 0.000000
vn 0.000000 -1.000000 0.000000
vn 1.000000 0.000000 0.000000
vn 1.000000 0.000000 0.000000
vn 1.000000 0.000000 0.000000
vn 1.000000 0.000000 0.000000
vn -1.000000 0.000000 0.000000
vn -1.000000 0.000000 0.000000
vn -1.000000 0.000000 0.000000
vn -1.000000 0.000000 0.000000
vn 1.000000 0.000000 0.000000
vn 1.000000 0.000000 0.000000
vn 1.000000 0.000000 0.000000
vn 1.000000 0.000000 0.000000
vn 0.000000 1.000000 0.000000
vn 0.000000 1.000000 0.000000
vn 0.000000 1.000000 0.000000
vn 0.000000 1.000000 0.000000
vn 0.000000 0.000000 -1.000000
vn 0.000000 0.000000 -1.000000
vn 0.000000 0.000000 -1.000000
vn 0.000000 0.000000 -1.000000
vn 0.000000 0.000000 1.000000
vn 0.000000 0.000000 1.000000
vn 0.000000 0.000000 1.000000
vn 0.000000 0.000000 1.000000
s 1
g textureBakeSet13 InteriorWalls
usemtl baked_lambert9SG_InteriorWallsSG
f 1/1/1 2/2/2 3/4/3
f 3/4/3 2/2/2 4/3/4
s 2
f 3/5/5 4/6/6 5/8/7
f 5/8/7 4/6/6 6/7/8
s 3
f 5/9/9 6/10/10 7/12/11
f 7/12/11 6/10/10 8/11/12
s 4
f 7/13/13 8/14/14 1/16/15
f 1/16/15 8/14/14 2/15/16
s 5
f 2/17/17 8/18/18 4/20/19
f 4/20/19 8/18/18 6/19/20
s 6
f 7/21/21 1/22/22 5/24/23
f 5/24/23 1/22/22 3/23/24
s 7
f 9/25/25 10/26/26 11/28/27
f 11/28/27 10/26/26 12/27/28
s 8
f 11/29/29 12/30/30 13/32/31
f 13/32/31 12/30/30 14/31/32
s 9
f 13/33/33 14/34/34 15/36/35
f 15/36/35 14/34/34 16/35/36
s 10
f 15/37/37 16/38/38 9/40/39
f 9/40/39 16/38/38 10/39/40
s 11
f 10/41/41 16/42/42 12/44/43
f 12/44/43 16/42/42 14/43/44
s 12
f 15/45/45 9/46/46 13/48/47
f 13/48/47 9/46/46 11/47/48
s 13
f 17/49/49 18/50/50 19/52/51
f 19/52/51 18/50/50 20/51/52
s 14
f 19/53/53 20/54/54 21/56/55
f 21/56/55 20/54/54 22/55/56
s 15
f 21/57/57 22/58/58 23/60/59
f 23/60/59 22/58/58 24/59/60
s 16
f 23/61/61 24/62/62 17/64/63
f 17/64/63 24/62/62 18/63/64
s 17
f 18/65/65 24/66/66 20/68/67
f 20/68/67 24/66/66 22/67/68
s 18
f 23/69/69 17/70/70 21/72/71
f 21/72/71 17/70/70 19/71/72
s 19
f 25/73/73 26/74/74 27/76/75
f 27/76/75 26/74/74 28/75/76
s 20
f 27/77/77 28/78/78 29/80/79
f 29/80/79 28/78/78 30/79/80
s 21
f 29/81/81 30/82/82 31/84/83
f 31/84/83 30/82/82 32/83/84
s 22
f 31/85/85 32/86/86 25/88/87
f 25/88/87 32/86/86 26/87/88
s 23
f 26/89/89 32/90/90 28/92/91
f 28/92/91 32/90/90 30/91/92
s 24
f 31/93/93 25/94/94 29/96/95
f 29/96/95 25/94/94 27/95/96
s 25
f 35/97/97 36/98/98 37/99/99
f 37/99/99 36/98/98 38/100/100
s 26
f 37/101/101 38/102/102 39/103/103
f 39/103/103 38/102/102 40/104/104
s 27
f 34/105/105 40/106/106 36/107/107
f 36/107/107 40/106/106 38/108/108
s 28
f 39/109/109 33/110/110 37/111/111
f 37/111/111 33/110/110 35/112/112
