# This file uses centimeters as units for non-parametric coordinates.

mtllib Dragon_Club_DanceFloor.mtl
g default
v 30.634010 -0.668642 56.582257
v 61.305772 -0.668642 56.582257
v 30.634010 0.082030 56.582257
v 61.305772 0.082030 56.582257
v 30.634010 0.082030 18.784268
v 61.305772 0.082030 18.784268
v 30.634010 -0.668642 18.784268
v 61.305772 -0.668642 18.784268
vt 0.013526 0.066938
vt 0.394463 0.066938
vt 0.013526 0.090427
vt 0.394463 0.090427
vt 0.016365 0.134075
vt 0.984206 0.134075
vt 0.016365 0.982213
vt 0.984206 0.982213
vt 0.393675 0.054218
vt 0.016018 0.054218
vt 0.393675 0.029694
vt 0.016018 0.029694
vt 0.411828 0.029676
vt 0.819814 0.029676
vt 0.411828 0.057027
vt 0.819814 0.057027
vt 0.409530 0.066179
vt 0.809440 0.066179
vt 0.409530 0.089382
vt 0.809440 0.089382
vn 0.000000 0.000000 1.000000
vn 0.000000 0.000000 1.000000
vn 0.000000 0.000000 1.000000
vn 0.000000 0.000000 1.000000
vn 0.000000 1.000000 0.000000
vn 0.000000 1.000000 0.000000
vn 0.000000 1.000000 0.000000
vn 0.000000 1.000000 0.000000
vn 0.000000 0.000000 -1.000000
vn 0.000000 0.000000 -1.000000
vn 0.000000 0.000000 -1.000000
vn 0.000000 0.000000 -1.000000
vn 1.000000 0.000000 0.000000
vn 1.000000 0.000000 0.000000
vn 1.000000 0.000000 0.000000
vn 1.000000 0.000000 0.000000
vn -1.000000 0.000000 0.000000
vn -1.000000 0.000000 0.000000
vn -1.000000 0.000000 0.000000
vn -1.000000 0.000000 0.000000
s 1
g textureBakeSet6 DanceFloor
usemtl baked_lambert2SG_DanceFloorSG
f 1/1/1 2/2/2 3/3/3
f 3/3/3 2/2/2 4/4/4
s 2
f 3/5/5 4/6/6 5/7/7
f 5/7/7 4/6/6 6/8/8
s 3
f 5/9/9 6/10/10 7/11/11
f 7/11/11 6/10/10 8/12/12
s 4
f 2/13/13 8/14/14 4/15/15
f 4/15/15 8/14/14 6/16/16
s 5
f 7/17/17 1/18/18 5/19/19
f 5/19/19 1/18/18 3/20/20
