# This file uses centimeters as units for non-parametric coordinates.

mtllib Dragon_Club_SideTable.mtl
g default
v 3.145694 1.965621 68.417477
v 3.145694 1.965621 72.555463
v 3.145694 2.158438 68.417477
v 3.145694 2.158438 72.555463
v 4.989231 2.158438 72.555463
v 4.989231 2.158438 68.417477
v 4.989231 1.965621 68.417477
v 4.989231 1.965621 72.555463
v 4.989231 2.158438 71.643772
v 3.145694 2.158438 71.643772
v 3.145694 1.965621 71.643772
v 4.989231 1.965621 71.643772
v 6.013044 1.965621 71.643772
v 6.013044 2.158438 71.643772
v 4.989231 2.158438 68.639788
v 3.145694 2.158438 68.639788
v 3.145694 1.965621 68.639788
v 4.989231 1.965621 68.639788
v 6.013044 1.965621 68.639788
v 6.013044 2.158438 68.639788
v 4.989231 -0.024284 71.643772
v 4.989231 -0.024284 72.555463
v 3.145694 -0.024284 72.555463
v 3.145694 -0.024284 71.643772
v 6.013044 -0.024284 71.643772
v 4.989231 -0.024284 72.555463
v 4.989231 -0.024284 71.643772
v 6.013044 -0.024284 68.639788
v 6.013044 -0.024284 71.643772
v 4.989231 -0.024284 71.643772
v 4.989231 -0.024284 68.639788
v 4.989231 -0.024284 68.417477
v 4.989231 -0.024284 68.639788
v 3.145694 -0.024284 68.639788
v 3.145694 -0.024284 68.417477
v 6.013044 -0.024284 68.639788
v 4.989231 -0.024284 68.639788
v 4.989231 -0.024284 68.417477
v 5.767391 2.158438 68.417477
v 6.013044 2.158438 68.595308
v 5.980133 2.158438 68.506392
v 5.890217 2.158438 68.441301
v 5.980133 1.965621 68.506392
v 5.890217 1.965621 68.441301
v 5.767391 1.965621 68.417477
v 6.013044 1.965621 68.595308
v 6.013044 2.158438 72.377632
v 5.767391 2.158438 72.555463
v 5.890217 2.158438 72.531639
v 5.980133 2.158438 72.466547
v 5.890217 1.965621 72.531639
v 5.980133 1.965621 72.466547
v 6.013044 1.965621 72.377632
v 5.767391 1.965621 72.555463
v 5.767391 -0.024284 72.555463
v 6.013044 -0.024284 72.377632
v 5.980133 -0.024284 72.466547
v 5.890217 -0.024284 72.531639
v 5.767391 -0.024284 68.417477
v 5.890217 -0.024284 68.441301
v 5.980133 -0.024284 68.506392
v 6.013044 -0.024284 68.595308
v 3.145694 1.567640 72.555463
v 3.145694 1.567640 71.643772
v 3.145694 0.930871 72.555463
v 3.145694 0.930871 71.643772
vt 0.001841 0.083079
vt 0.001841 0.001992
vt 0.165808 0.001992
vt 0.165808 0.083079
vt 0.256868 0.083079
vt 0.235019 0.001992
vt 0.256868 0.017809
vt 0.001841 0.350259
vt 0.165808 0.350259
vt 0.256868 0.350259
vt 0.245943 0.004111
vt 0.253940 0.009900
vt 0.001841 0.370032
vt 0.165808 0.370032
vt 0.256868 0.354215
vt 0.235019 0.370032
vt 0.253940 0.362123
vt 0.245943 0.367913
vt 0.463012 0.080961
vt 0.463012 0.015690
vt 0.480161 0.015690
vt 0.480161 0.080961
vt 0.463012 0.007781
vt 0.480161 0.007781
vt 0.657147 0.015690
vt 0.657147 0.080961
vt 0.463012 0.348140
vt 0.480161 0.348140
vt 0.463012 0.001992
vt 0.480161 0.001992
vt 0.657147 0.007781
vt 0.480161 0.352096
vt 0.463012 0.352096
vt 0.657147 0.001992
vt 0.463012 0.360004
vt 0.480161 0.360004
vt 0.657147 0.352096
vt 0.657147 0.348140
vt 0.657147 0.360004
vt 0.463012 0.365794
vt 0.480161 0.365794
vt 0.657147 0.365794
vt 0.256143 0.537687
vt 0.256143 0.373719
vt 0.273293 0.373719
vt 0.273293 0.537687
vt 0.079158 0.537687
vt 0.079158 0.373719
vt 0.273293 0.606898
vt 0.256143 0.606898
vt 0.273293 0.617822
vt 0.256143 0.617822
vt 0.079158 0.617822
vt 0.079158 0.606898
vt 0.446997 0.821022
vt 0.512267 0.821022
vt 0.528084 0.842871
vt 0.528084 0.912082
vt 0.446997 0.912082
vt 0.520176 0.823950
vt 0.525965 0.831947
vt 0.648401 0.636661
vt 0.648401 0.369482
vt 0.739461 0.369482
vt 0.739461 0.636661
vt 0.440114 0.370032
vt 0.440114 0.350259
vt 0.457264 0.350259
vt 0.457264 0.370032
vt 0.263129 0.370032
vt 0.263129 0.350259
vt 0.457264 0.083079
vt 0.440114 0.083079
vt 0.457264 0.001992
vt 0.440114 0.001992
vt 0.404717 0.083079
vt 0.404717 0.001992
vt 0.348082 0.083079
vt 0.348082 0.001992
vt 0.263129 0.083079
vt 0.263129 0.001992
vt 0.620509 0.821022
vt 0.640281 0.821022
vt 0.640281 0.984990
vt 0.620509 0.984990
vt 0.662894 0.269172
vt 0.662894 0.001992
vt 0.839880 0.001992
vt 0.839880 0.269172
vt 0.092900 0.798495
vt 0.001841 0.798495
vt 0.001841 0.621510
vt 0.092900 0.621510
vt 0.732706 0.821023
vt 0.752479 0.821023
vt 0.752479 0.998008
vt 0.732706 0.998008
vt 0.263228 0.798495
vt 0.099261 0.798495
vt 0.099261 0.621510
vt 0.263228 0.621510
vt 0.361391 0.798495
vt 0.270332 0.798495
vt 0.270332 0.621510
vt 0.361391 0.621510
vt 0.387345 0.798495
vt 0.367572 0.798495
vt 0.367572 0.621510
vt 0.387345 0.621510
vt 0.463794 0.798495
vt 0.394583 0.798495
vt 0.394583 0.621510
vt 0.463794 0.621510
vt 0.421555 0.824032
vt 0.437372 0.802183
vt 0.441328 0.802183
vt 0.441328 0.893243
vt 0.421555 0.893243
vt 0.423674 0.813108
vt 0.429463 0.805110
vt 0.473097 0.373719
vt 0.473097 0.384644
vt 0.455947 0.384644
vt 0.455947 0.373719
vt 0.473097 0.453855
vt 0.455947 0.453855
vt 0.278962 0.384644
vt 0.278962 0.373719
vt 0.473097 0.617822
vt 0.455947 0.617822
vt 0.278962 0.453855
vt 0.561274 0.640349
vt 0.561274 0.817334
vt 0.470215 0.817334
vt 0.470215 0.640349
vt 0.658514 0.640349
vt 0.658514 0.817334
vt 0.567455 0.817334
vt 0.567455 0.640349
vt 0.745130 0.272860
vt 0.922115 0.272860
vt 0.922115 0.540039
vt 0.745130 0.540039
vt 0.614840 0.984990
vt 0.533753 0.984990
vt 0.533753 0.821022
vt 0.614840 0.821022
vt 0.642733 0.369482
vt 0.642733 0.636661
vt 0.478765 0.636661
vt 0.478765 0.369482
vt 0.727038 0.998008
vt 0.645950 0.998008
vt 0.645950 0.821023
vt 0.727038 0.821023
vt 0.664695 0.640349
vt 0.745782 0.640349
vt 0.745782 0.817334
vt 0.664695 0.817334
vt 0.916899 0.720712
vt 0.752932 0.720712
vt 0.752932 0.685315
vt 0.752932 0.628680
vt 0.752932 0.543727
vt 0.916899 0.543727
vt 0.922115 0.865989
vt 0.922115 0.901386
vt 0.758148 0.901386
vt 0.758148 0.724400
vt 0.922115 0.724400
vt 0.922115 0.809354
vn 0.000000 1.000000 0.000000
vn 0.000000 1.000000 0.000000
vn 0.000000 1.000000 0.000000
vn 0.000000 1.000000 0.000000
vn 1.000000 0.000000 -0.000000
vn 0.999201 0.000000 0.039969
vn 1.000000 0.000000 -0.000000
vn 0.999201 0.000000 0.039968
vn -0.000000 0.000000 -1.000000
vn -0.000000 0.000000 -1.000000
vn -0.000000 0.000000 -1.000000
vn -0.000000 0.000000 -1.000000
vn 0.000000 1.000000 0.000000
vn 0.000000 1.000000 0.000000
vn 0.000000 1.000000 0.000000
vn 0.026433 0.000000 -0.999651
vn 0.026433 0.000000 -0.999651
vn 0.000000 -1.000000 0.000000
vn 0.000000 -1.000000 -0.000000
vn 0.000000 -1.000000 0.000000
vn 0.000000 -1.000000 -0.000000
vn 0.000000 -1.000000 0.000000
vn 0.000000 1.000000 0.000000
vn 0.000000 1.000000 0.000000
vn 0.000000 -1.000000 0.000000
vn 0.000000 -1.000000 0.000000
vn 0.000000 -1.000000 0.000000
vn 0.000000 -1.000000 0.000000
vn 1.000000 0.000000 -0.000000
vn 1.000000 0.000000 -0.000000
vn 0.000000 1.000000 0.000000
vn 0.000000 1.000000 0.000000
vn 0.000000 1.000000 0.000000
vn -1.000000 0.000000 0.000000
vn -1.000000 0.000000 0.000000
vn -1.000000 0.000000 0.000000
vn -1.000000 0.000000 0.000000
vn 0.000000 -1.000000 0.000000
vn 0.000000 -1.000000 0.000000
vn 0.000000 -1.000000 0.000000
vn 0.000000 -1.000000 0.000000
vn 0.970888 0.000000 -0.239536
vn 0.970888 0.000000 -0.239535
vn -0.000000 1.000000 0.000000
vn -0.000000 1.000000 0.000000
vn 1.000000 0.000000 -0.000000
vn 0.999201 0.000000 0.039968
vn 1.000000 0.000000 -0.000000
vn 1.000000 0.000000 -0.000000
vn -0.000000 0.000000 -1.000000
vn -0.000000 0.000000 -1.000000
vn -0.000000 0.000000 -1.000000
vn -0.000000 0.000000 -1.000000
vn 1.000000 0.000000 -0.000000
vn 1.000000 0.000000 -0.000000
vn 1.000000 0.000000 -0.000000
vn 1.000000 0.000000 -0.000000
vn 0.000000 0.000000 1.000000
vn 0.000000 0.000000 1.000000
vn 0.000000 0.000000 1.000000
vn 0.000000 0.000000 1.000000
vn -1.000000 0.000000 0.000000
vn -1.000000 0.000000 0.000000
vn -0.000000 0.000000 -1.000000
vn -0.000000 0.000000 -1.000000
vn 0.970888 0.000000 -0.239536
vn 1.000000 0.000000 -0.000000
vn 0.000000 0.000000 1.000000
vn 0.000000 0.000000 1.000000
vn 0.000000 0.000000 1.000000
vn 0.000000 0.000000 1.000000
vn -1.000000 0.000000 0.000000
vn -1.000000 0.000000 0.000000
vn -1.000000 0.000000 0.000000
vn -1.000000 0.000000 0.000000
vn -0.000000 0.000000 -1.000000
vn 0.026433 0.000000 -0.999651
vn 0.000000 -1.000000 0.000000
vn -0.000000 -1.000000 0.000000
vn -0.000000 -1.000000 0.000000
vn -0.000000 -1.000000 0.000000
vn 0.000000 -1.000000 0.000000
vn 0.190417 0.000000 -0.981703
vn 0.190417 0.000000 -0.981703
vn 0.586391 0.000000 -0.810028
vn 0.781806 0.000000 -0.623522
vn 0.586392 0.000000 -0.810027
vn 0.781806 0.000000 -0.623522
vn 0.190417 0.000000 -0.981703
vn 0.190416 0.000000 -0.981703
vn 0.586393 0.000000 -0.810027
vn 0.781806 0.000000 -0.623522
vn 0.586392 0.000000 -0.810028
vn 0.781805 0.000000 -0.623523
vn 0.781806 0.000000 0.623522
vn 0.781806 0.000000 0.623522
vn 0.586392 0.000000 0.810027
vn 0.586391 0.000000 0.810028
vn 0.190417 0.000000 0.981703
vn 0.026433 0.000000 0.999651
vn 0.190417 0.000000 0.981703
vn 0.026433 0.000000 0.999651
vn 0.781805 0.000000 0.623523
vn 0.781806 0.000000 0.623522
vn 0.586392 0.000000 0.810028
vn 0.586393 0.000000 0.810027
vn 0.190416 0.000000 0.981703
vn 0.190417 0.000000 0.981703
vn 0.026433 0.000000 0.999651
vn -0.000000 1.000000 0.000000
vn 0.000000 1.000000 0.000000
vn 0.000000 1.000000 0.000000
vn 0.000000 1.000000 0.000000
vn 0.000002 -1.000000 -0.000000
vn 0.000000 -1.000000 0.000000
vn 0.000004 -1.000000 -0.000000
vn 0.000000 -1.000000 0.000000
vn 0.000000 0.000000 1.000000
vn 0.000000 0.000000 1.000000
vn 0.000000 0.000000 1.000000
vn 0.000000 0.000000 1.000000
vn 0.000000 0.000000 1.000000
vn -0.000000 0.000000 -1.000000
vn -0.000000 0.000000 -1.000000
vn -0.000000 0.000000 -1.000000
vn -0.000000 0.000000 -1.000000
vn 0.000000 0.000000 1.000000
vn 0.000000 0.000000 1.000000
vn 0.000000 0.000000 1.000000
vn 0.000000 0.000000 1.000000
vn -1.000000 0.000000 0.000000
vn -1.000000 0.000000 0.000000
vn -1.000000 0.000000 0.000000
vn -1.000000 0.000000 0.000000
vn -1.000000 0.000000 0.000000
vn -1.000000 0.000000 0.000000
vn -1.000000 0.000000 0.000000
vn -1.000000 0.000000 0.000000
vn 0.000000 -1.000000 0.000000
vn 0.000000 -1.000000 0.000000
vn 0.000000 -1.000000 0.000000
vn 0.000000 -1.000000 0.000000
vn 0.000000 -1.000000 0.000000
vn 0.000000 -1.000000 0.000000
vn 0.000000 -1.000000 0.000000
vn 0.000000 -1.000000 0.000000
vn 1.000000 0.000000 -0.000000
vn 1.000000 0.000000 -0.000000
vn 1.000000 0.000000 -0.000000
vn 1.000000 0.000000 -0.000000
vn -1.000000 0.000000 0.000000
vn -1.000000 0.000000 0.000000
vn -1.000000 0.000000 0.000000
vn -1.000000 0.000000 0.000000
vn -1.000000 0.000000 0.000000
vn -1.000000 0.000000 0.000000
vn -1.000000 0.000000 0.000000
vn -1.000000 0.000000 0.000000
vn -1.000000 0.000000 0.000000
vn -1.000000 0.000000 0.000000
vn 0.000000 0.000000 1.000000
vn 0.000000 0.000000 1.000000
vn 0.000000 0.000000 1.000000
vn 0.000000 0.000000 1.000000
vn -0.000000 0.000000 -1.000000
vn -0.000000 0.000000 -1.000000
vn -0.000000 0.000000 -1.000000
vn -0.000000 0.000000 -1.000000
vn -0.000000 0.000000 -1.000000
vn -0.000000 0.000000 -1.000000
vn -1.000000 0.000000 0.000000
vn -1.000000 0.000000 0.000000
vn -1.000000 0.000000 0.000000
vn -1.000000 0.000000 0.000000
s 1
g textureBakeSet26 SideTable Manager_sOffice
usemtl baked_lambert26SG_SideTableSG
f 10/1/1 4/2/2 9/4/3
f 9/4/3 4/2/2 5/3/4
s 2
f 14/19/5 47/20/6 13/22/7
f 13/22/7 47/20/6 53/21/8
s 3
f 7/43/9 1/44/10 6/46/11
f 6/46/11 1/44/10 3/45/12
s 1
f 14/5/13 9/4/3 47/7/14
f 47/7/14 9/4/3 48/6/15
f 9/4/3 5/3/4 48/6/15
s 3
f 39/49/16 45/50/17 6/46/11
f 6/46/11 45/50/17 7/43/9
s 6
f 25/55/18 56/56/19 27/59/20
f 56/56/19 55/57/21 27/59/20
f 55/57/21 26/58/22 27/59/20
s 1
f 16/8/23 10/1/1 15/9/24
f 15/9/24 10/1/1 9/4/3
s 7
f 28/62/25 29/63/26 31/65/27
f 31/65/27 29/63/26 30/64/28
s 2
f 20/27/29 14/19/5 19/28/30
f 19/28/30 14/19/5 13/22/7
s 1
f 20/10/31 15/9/24 14/5/13
f 14/5/13 15/9/24 9/4/3
f 3/13/32 16/8/23 6/14/33
f 6/14/33 16/8/23 15/9/24
s 9
f 1/66/34 17/67/35 3/69/36
f 3/69/36 17/67/35 16/68/37
s 10
f 32/82/38 33/83/39 35/85/40
f 35/85/40 33/83/39 34/84/41
s 2
f 46/32/42 40/33/43 19/28/30
f 19/28/30 40/33/43 20/27/29
s 1
f 6/14/33 15/9/24 39/16/44
f 20/10/31 40/15/45 15/9/24
f 15/9/24 40/15/45 39/16/44
s 2
f 13/22/7 53/21/8 25/26/46
f 25/26/46 53/21/8 56/25/47
f 19/86/30 13/87/7 28/89/48
f 28/89/48 13/87/7 29/88/49
s 12
f 18/90/50 19/91/51 31/93/52
f 31/93/52 19/91/51 28/92/53
s 13
f 7/94/54 18/95/55 32/97/56
f 32/97/56 18/95/55 33/96/57
s 14
f 18/98/58 17/99/59 33/101/60
f 33/101/60 17/99/59 34/100/61
s 9
f 17/67/35 1/66/34 34/71/62
f 34/71/62 1/66/34 35/70/63
s 3
f 1/44/10 7/43/9 35/48/64
f 35/48/64 7/43/9 32/47/65
s 2
f 62/37/66 46/32/42 36/38/67
f 36/38/67 46/32/42 19/28/30
s 16
f 19/102/68 18/103/69 36/105/70
f 36/105/70 18/103/69 37/104/71
s 17
f 18/106/72 7/107/73 37/109/74
f 37/109/74 7/107/73 38/108/75
s 3
f 7/110/9 45/111/17 38/113/76
f 38/113/76 45/111/17 59/112/77
s 18
f 36/116/78 37/117/79 62/115/80
f 62/115/80 37/117/79 59/114/81
f 59/114/81 37/117/79 38/118/82
s 3
f 39/49/16 42/51/83 45/50/17
f 45/50/17 42/51/83 44/52/84
s 2
f 42/40/85 41/35/86 44/41/87
f 44/41/87 41/35/86 43/36/88
f 41/35/86 40/33/43 43/36/88
f 43/36/88 40/33/43 46/32/42
s 3
f 45/50/17 44/52/89 59/54/77
f 59/54/77 44/52/89 60/53/90
s 2
f 44/41/91 43/36/92 60/42/93
f 60/42/93 43/36/92 61/39/94
f 43/36/92 46/32/42 61/39/94
f 61/39/94 46/32/42 62/37/66
f 47/20/6 50/23/95 53/21/8
f 53/21/8 50/23/95 52/24/96
f 50/23/95 49/29/97 52/24/96
f 52/24/96 49/29/97 51/30/98
s 21
f 49/121/99 48/122/100 51/124/101
f 51/124/101 48/122/100 54/123/102
s 2
f 53/21/8 52/24/103 56/25/47
f 56/25/47 52/24/103 57/31/104
f 52/24/103 51/30/105 57/31/104
f 57/31/104 51/30/105 58/34/106
s 21
f 51/124/107 54/123/102 58/128/108
f 58/128/108 54/123/102 55/127/109
s 1
f 39/16/44 40/15/45 42/18/110
f 42/18/110 40/15/45 41/17/111
f 48/6/15 49/11/112 47/7/14
f 47/7/14 49/11/112 50/12/113
s 6
f 55/57/21 56/56/19 58/61/114
f 58/61/114 56/56/19 57/60/115
s 18
f 59/114/81 60/119/116 62/115/80
f 62/115/80 60/119/116 61/120/117
s 21
f 4/129/118 2/130/119 5/125/120
f 5/125/120 2/130/119 8/126/121
f 48/122/100 5/125/120 54/123/102
f 54/123/102 5/125/120 8/126/121
f 26/131/122 55/127/109 8/126/121
f 8/126/121 55/127/109 54/123/102
s 24
f 27/132/123 12/133/124 25/135/125
f 25/135/125 12/133/124 13/134/126
s 25
f 29/136/127 13/137/128 30/139/129
f 30/139/129 13/137/128 12/138/130
s 26
f 30/140/131 12/141/132 31/143/133
f 31/143/133 12/141/132 18/142/134
s 9
f 4/74/135 10/72/136 2/75/137
f 2/75/137 10/72/136 11/73/138
s 28
f 23/144/139 24/145/140 22/147/141
f 22/147/141 24/145/140 21/146/142
s 9
f 10/72/136 16/68/37 11/73/138
f 11/73/138 16/68/37 17/67/35
s 29
f 11/148/143 17/149/144 12/151/145
f 12/151/145 17/149/144 18/150/146
s 30
f 22/152/147 21/153/148 8/155/149
f 8/155/149 21/153/148 12/154/150
s 9
f 11/73/138 64/76/151 2/75/137
f 2/75/137 64/76/151 63/77/152
s 31
f 27/156/153 26/157/154 12/159/155
f 12/159/155 26/157/154 8/158/156
s 32
f 66/78/157 65/79/158 64/76/159
f 64/76/159 65/79/158 63/77/160
s 21
f 8/160/121 2/161/119 22/165/161
f 2/161/119 63/162/162 22/165/161
f 63/162/162 65/163/163 22/165/161
f 65/163/163 23/164/164 22/165/161
s 33
f 11/167/165 12/168/166 64/166/167
f 12/168/166 21/169/168 64/166/167
f 64/166/167 21/169/168 66/171/169
f 21/169/168 24/170/170 66/171/169
s 34
f 65/79/171 66/78/172 23/81/173
f 23/81/173 66/78/172 24/80/174
