# This file uses centimeters as units for non-parametric coordinates.

mtllib Dragon_Club_DiscoSphere.mtl
g default
v 48.148093 12.507953 38.265892
v 47.897935 12.507953 38.084141
v 47.588723 12.507953 38.084142
v 47.338566 12.507953 38.265892
v 47.243014 12.507953 38.559970
v 47.338566 12.507953 38.854048
v 47.588723 12.507953 39.035798
v 47.897935 12.507953 39.035798
v 48.148093 12.507953 38.854048
v 48.243644 12.507953 38.559970
v 48.513235 12.737921 38.000600
v 48.037408 12.737921 37.654891
v 47.449252 12.737921 37.654891
v 46.973424 12.737921 38.000600
v 46.791673 12.737921 38.559970
v 46.973424 12.737921 39.119340
v 47.449252 12.737921 39.465049
v 48.037408 12.737921 39.465049
v 48.513235 12.737921 39.119339
v 48.694985 12.737920 38.559970
v 48.803014 13.096106 37.790063
v 48.148093 13.096106 37.314235
v 47.338566 13.096106 37.314235
v 46.683644 13.096106 37.790064
v 46.433486 13.096106 38.559970
v 46.683645 13.096106 39.329876
v 47.338566 13.096106 39.805704
v 48.148093 13.096106 39.805704
v 48.803014 13.096106 39.329876
v 49.053172 13.096106 38.559970
v 48.989064 13.547448 37.654891
v 48.219158 13.547448 37.095521
v 47.267502 13.547448 37.095521
v 46.497595 13.547448 37.654891
v 46.203517 13.547448 38.559970
v 46.497595 13.547448 39.465049
v 47.267502 13.547448 40.024419
v 48.219158 13.547448 40.024418
v 48.989064 13.547448 39.465049
v 49.283142 13.547448 38.559970
v 49.053172 14.047763 37.608313
v 48.243644 14.047763 37.020157
v 47.243014 14.047763 37.020157
v 46.433486 14.047763 37.608313
v 46.124275 14.047763 38.559970
v 46.433486 14.047763 39.511626
v 47.243014 14.047763 40.099782
v 48.243644 14.047763 40.099782
v 49.053172 14.047763 39.511626
v 49.362384 14.047763 38.559970
v 48.989064 14.548079 37.654891
v 48.219158 14.548079 37.095521
v 47.267502 14.548079 37.095521
v 46.497595 14.548079 37.654891
v 46.203517 14.548079 38.559970
v 46.497595 14.548079 39.465049
v 47.267502 14.548079 40.024419
v 48.219158 14.548079 40.024418
v 48.989064 14.548079 39.465049
v 49.283142 14.548079 38.559970
v 48.803014 14.999419 37.790063
v 48.148093 14.999419 37.314235
v 47.338566 14.999419 37.314235
v 46.683644 14.999419 37.790064
v 46.433486 14.999419 38.559970
v 46.683645 14.999419 39.329876
v 47.338566 14.999419 39.805704
v 48.148093 14.999419 39.805704
v 48.803014 14.999419 39.329876
v 49.053172 14.999419 38.559970
v 48.513235 15.357606 38.000600
v 48.037408 15.357606 37.654891
v 47.449252 15.357606 37.654891
v 46.973424 15.357606 38.000600
v 46.791673 15.357606 38.559970
v 46.973424 15.357606 39.119340
v 47.449252 15.357606 39.465049
v 48.037408 15.357606 39.465049
v 48.513235 15.357606 39.119339
v 48.694985 15.357606 38.559970
v 48.148093 15.587576 38.265892
v 47.897935 15.587576 38.084141
v 47.588723 15.587576 38.084142
v 47.338566 15.587576 38.265892
v 47.243014 15.587576 38.559970
v 47.338566 15.587576 38.854048
v 47.588723 15.587576 39.035798
v 47.897935 15.587576 39.035798
v 48.148093 15.587576 38.854048
v 48.243644 15.587576 38.559970
v 47.743329 12.428710 38.559970
v 47.743329 15.666818 38.559970
vt 0.500000 0.550000
vt 0.500000 0.550000
vt 0.500000 0.550000
vt 0.500000 0.550000
vt 0.500000 0.550000
vt 0.500000 0.550000
vt 0.500000 0.550000
vt 0.500000 0.550000
vt 0.500000 0.550000
vt 0.500000 0.550000
vt 0.500000 0.550000
vt 0.500000 0.550000
vt 0.500000 0.550000
vt 0.500000 0.550000
vt 0.500000 0.550000
vt 0.500000 0.550000
vt 0.500000 0.550000
vt 0.500000 0.550000
vt 0.500000 0.550000
vt 0.500000 0.550000
vt 0.500000 0.550000
vt 0.500000 0.550000
vt 0.500000 0.550000
vt 0.500000 0.550000
vt 0.500000 0.550000
vt 0.500000 0.550000
vt 0.500000 0.550000
vt 0.500000 0.550000
vt 0.500000 0.550000
vt 0.500000 0.550000
vt 0.500000 0.550000
vt 0.500000 0.550000
vt 0.500000 0.550000
vt 0.500000 0.550000
vt 0.500000 0.550000
vt 0.500000 0.550000
vt 0.500000 0.550000
vt 0.500000 0.550000
vt 0.500000 0.550000
vt 0.500000 0.550000
vt 0.500000 0.550000
vt 0.500000 0.550000
vt 0.500000 0.550000
vt 0.500000 0.550000
vt 0.500000 0.550000
vt 0.500000 0.550000
vt 0.500000 0.550000
vt 0.500000 0.550000
vt 0.500000 0.550000
vt 0.500000 0.550000
vt 0.500000 0.550000
vt 0.500000 0.550000
vt 0.500000 0.550000
vt 0.500000 0.550000
vt 0.500000 0.550000
vt 0.500000 0.550000
vt 0.500000 0.550000
vt 0.500000 0.550000
vt 0.500000 0.550000
vt 0.500000 0.550000
vt 0.500000 0.550000
vt 0.500000 0.550000
vt 0.500000 0.550000
vt 0.500000 0.550000
vt 0.500000 0.550000
vt 0.500000 0.550000
vt 0.500000 0.550000
vt 0.500000 0.550000
vt 0.500000 0.550000
vt 0.500000 0.550000
vt 0.500000 0.550000
vt 0.500000 0.550000
vt 0.500000 0.550000
vt 0.500000 0.550000
vt 0.500000 0.550000
vt 0.500000 0.550000
vt 0.500000 0.550000
vt 0.500000 0.550000
vt 0.500000 0.550000
vt 0.500000 0.550000
vt 0.500000 0.550000
vt 0.500000 0.550000
vt 0.500000 0.550000
vt 0.500000 0.550000
vt 0.500000 0.550000
vt 0.500000 0.550000
vt 0.500000 0.550000
vt 0.500000 0.550000
vt 0.500000 0.550000
vt 0.500000 0.550000
vt 0.500000 0.550000
vt 0.500000 0.550000
vt 0.500000 0.550000
vt 0.500000 0.550000
vt 0.500000 0.550000
vt 0.500000 0.550000
vt 0.500000 0.550000
vt 0.500000 0.550000
vt 0.500000 0.550000
vt 0.500000 0.550000
vt 0.500000 0.550000
vn 0.277577 -0.881469 -0.382052
vn 0.277577 -0.881469 -0.382052
vn 0.277577 -0.881469 -0.382052
vn 0.277577 -0.881469 -0.382051
vn -0.000000 -0.881469 -0.472242
vn -0.000000 -0.881469 -0.472242
vn -0.000000 -0.881469 -0.472242
vn -0.000000 -0.881469 -0.472242
vn -0.277577 -0.881469 -0.382052
vn -0.277577 -0.881469 -0.382052
vn -0.277577 -0.881469 -0.382052
vn -0.277577 -0.881469 -0.382052
vn -0.449129 -0.881469 -0.145931
vn -0.449129 -0.881469 -0.145931
vn -0.449129 -0.881469 -0.145931
vn -0.449129 -0.881469 -0.145931
vn -0.449129 -0.881469 0.145932
vn -0.449129 -0.881469 0.145932
vn -0.449129 -0.881469 0.145932
vn -0.449129 -0.881469 0.145931
vn -0.277577 -0.881469 0.382051
vn -0.277577 -0.881469 0.382052
vn -0.277577 -0.881469 0.382052
vn -0.277577 -0.881469 0.382052
vn 0.000000 -0.881469 0.472242
vn 0.000000 -0.881469 0.472242
vn 0.000000 -0.881469 0.472242
vn 0.000000 -0.881469 0.472242
vn 0.277577 -0.881469 0.382051
vn 0.277577 -0.881469 0.382052
vn 0.277577 -0.881469 0.382052
vn 0.277577 -0.881469 0.382052
vn 0.449130 -0.881468 0.145931
vn 0.449128 -0.881469 0.145931
vn 0.449128 -0.881469 0.145931
vn 0.449128 -0.881469 0.145932
vn 0.449128 -0.881470 -0.145929
vn 0.449128 -0.881469 -0.145931
vn 0.449128 -0.881469 -0.145932
vn 0.449129 -0.881469 -0.145932
vn 0.425919 -0.689154 -0.586225
vn 0.425919 -0.689153 -0.586226
vn 0.425919 -0.689153 -0.586226
vn 0.425918 -0.689153 -0.586227
vn -0.000000 -0.689153 -0.724616
vn -0.000000 -0.689153 -0.724616
vn -0.000000 -0.689153 -0.724616
vn 0.000000 -0.689153 -0.724616
vn -0.425919 -0.689153 -0.586226
vn -0.425918 -0.689153 -0.586226
vn -0.425918 -0.689153 -0.586226
vn -0.425918 -0.689153 -0.586226
vn -0.689149 -0.689154 -0.223919
vn -0.689150 -0.689154 -0.223919
vn -0.689150 -0.689154 -0.223919
vn -0.689150 -0.689153 -0.223919
vn -0.689150 -0.689153 0.223919
vn -0.689150 -0.689153 0.223919
vn -0.689150 -0.689153 0.223919
vn -0.689150 -0.689153 0.223919
vn -0.425919 -0.689153 0.586226
vn -0.425919 -0.689153 0.586226
vn -0.425919 -0.689153 0.586226
vn -0.425918 -0.689153 0.586227
vn 0.000000 -0.689153 0.724616
vn 0.000000 -0.689153 0.724616
vn 0.000000 -0.689153 0.724616
vn 0.000000 -0.689153 0.724616
vn 0.425920 -0.689153 0.586226
vn 0.425918 -0.689153 0.586226
vn 0.425919 -0.689153 0.586226
vn 0.425918 -0.689154 0.586226
vn 0.689149 -0.689154 0.223919
vn 0.689150 -0.689154 0.223919
vn 0.689150 -0.689154 0.223919
vn 0.689150 -0.689153 0.223919
vn 0.689150 -0.689153 -0.223919
vn 0.689150 -0.689154 -0.223919
vn 0.689150 -0.689154 -0.223919
vn 0.689150 -0.689154 -0.223918
vn 0.528952 -0.436083 -0.728040
vn 0.528952 -0.436083 -0.728039
vn 0.528952 -0.436083 -0.728039
vn 0.528952 -0.436083 -0.728039
vn -0.000001 -0.436083 -0.899906
vn -0.000000 -0.436083 -0.899906
vn -0.000000 -0.436083 -0.899906
vn -0.000000 -0.436083 -0.899906
vn -0.528952 -0.436083 -0.728040
vn -0.528952 -0.436082 -0.728040
vn -0.528952 -0.436083 -0.728040
vn -0.528952 -0.436082 -0.728040
vn -0.855862 -0.436082 -0.278087
vn -0.855862 -0.436082 -0.278087
vn -0.855862 -0.436082 -0.278087
vn -0.855862 -0.436082 -0.278087
vn -0.855862 -0.436082 0.278087
vn -0.855862 -0.436083 0.278087
vn -0.855862 -0.436083 0.278087
vn -0.855862 -0.436083 0.278087
vn -0.528952 -0.436083 0.728039
vn -0.528952 -0.436083 0.728040
vn -0.528952 -0.436083 0.728040
vn -0.528952 -0.436083 0.728040
vn 0.000000 -0.436083 0.899906
vn 0.000000 -0.436083 0.899906
vn 0.000000 -0.436083 0.899906
vn 0.000000 -0.436083 0.899907
vn 0.528952 -0.436083 0.728040
vn 0.528952 -0.436083 0.728040
vn 0.528952 -0.436083 0.728040
vn 0.528952 -0.436083 0.728040
vn 0.855862 -0.436083 0.278087
vn 0.855862 -0.436083 0.278086
vn 0.855862 -0.436083 0.278086
vn 0.855862 -0.436082 0.278086
vn 0.855862 -0.436082 -0.278087
vn 0.855862 -0.436083 -0.278086
vn 0.855862 -0.436083 -0.278086
vn 0.855862 -0.436083 -0.278086
vn 0.581228 -0.148952 -0.799992
vn 0.581228 -0.148951 -0.799992
vn 0.581228 -0.148952 -0.799992
vn 0.581228 -0.148951 -0.799992
vn -0.000000 -0.148952 -0.988844
vn -0.000000 -0.148952 -0.988844
vn -0.000000 -0.148952 -0.988844
vn 0.000000 -0.148952 -0.988844
vn -0.581228 -0.148953 -0.799992
vn -0.581228 -0.148953 -0.799992
vn -0.581228 -0.148953 -0.799992
vn -0.581228 -0.148953 -0.799992
vn -0.940447 -0.148954 -0.305570
vn -0.940447 -0.148953 -0.305570
vn -0.940447 -0.148953 -0.305570
vn -0.940447 -0.148952 -0.305569
vn -0.940447 -0.148952 0.305570
vn -0.940447 -0.148953 0.305569
vn -0.940447 -0.148953 0.305570
vn -0.940447 -0.148953 0.305569
vn -0.581228 -0.148953 0.799992
vn -0.581228 -0.148953 0.799992
vn -0.581228 -0.148953 0.799992
vn -0.581228 -0.148952 0.799992
vn 0.000000 -0.148952 0.988845
vn 0.000000 -0.148952 0.988844
vn 0.000000 -0.148952 0.988844
vn 0.000000 -0.148952 0.988844
vn 0.581228 -0.148951 0.799992
vn 0.581228 -0.148952 0.799992
vn 0.581228 -0.148951 0.799992
vn 0.581228 -0.148952 0.799992
vn 0.940447 -0.148952 0.305569
vn 0.940447 -0.148952 0.305569
vn 0.940447 -0.148952 0.305569
vn 0.940447 -0.148952 0.305569
vn 0.940447 -0.148952 -0.305569
vn 0.940447 -0.148952 -0.305569
vn 0.940447 -0.148952 -0.305569
vn 0.940447 -0.148952 -0.305569
vn 0.581228 0.148952 -0.799992
vn 0.581228 0.148951 -0.799992
vn 0.581228 0.148952 -0.799992
vn 0.581228 0.148951 -0.799992
vn 0.000000 0.148952 -0.988844
vn -0.000000 0.148952 -0.988844
vn -0.000000 0.148952 -0.988844
vn -0.000000 0.148952 -0.988844
vn -0.581228 0.148953 -0.799992
vn -0.581228 0.148953 -0.799992
vn -0.581228 0.148953 -0.799992
vn -0.581228 0.148953 -0.799992
vn -0.940447 0.148953 -0.305569
vn -0.940447 0.148953 -0.305570
vn -0.940447 0.148953 -0.305570
vn -0.940447 0.148952 -0.305570
vn -0.940447 0.148952 0.305569
vn -0.940447 0.148953 0.305570
vn -0.940447 0.148953 0.305570
vn -0.940447 0.148953 0.305570
vn -0.581228 0.148953 0.799992
vn -0.581228 0.148953 0.799992
vn -0.581228 0.148953 0.799992
vn -0.581228 0.148952 0.799992
vn 0.000000 0.148952 0.988844
vn 0.000000 0.148952 0.988844
vn 0.000000 0.148952 0.988844
vn 0.000000 0.148952 0.988844
vn 0.581228 0.148951 0.799992
vn 0.581228 0.148952 0.799992
vn 0.581228 0.148951 0.799992
vn 0.581228 0.148952 0.799992
vn 0.940447 0.148952 0.305569
vn 0.940447 0.148952 0.305569
vn 0.940447 0.148952 0.305569
vn 0.940447 0.148952 0.305569
vn 0.940447 0.148952 -0.305569
vn 0.940447 0.148952 -0.305569
vn 0.940447 0.148952 -0.305569
vn 0.940447 0.148952 -0.305569
vn 0.528951 0.436084 -0.728039
vn 0.528951 0.436085 -0.728039
vn 0.528951 0.436085 -0.728039
vn 0.528951 0.436085 -0.728039
vn -0.000000 0.436084 -0.899906
vn -0.000000 0.436084 -0.899906
vn -0.000000 0.436084 -0.899906
vn -0.000000 0.436084 -0.899906
vn -0.528952 0.436084 -0.728039
vn -0.528952 0.436084 -0.728039
vn -0.528952 0.436084 -0.728039
vn -0.528952 0.436084 -0.728039
vn -0.855862 0.436083 -0.278087
vn -0.855862 0.436083 -0.278087
vn -0.855862 0.436083 -0.278087
vn -0.855862 0.436083 -0.278086
vn -0.855862 0.436084 0.278087
vn -0.855861 0.436084 0.278087
vn -0.855861 0.436084 0.278087
vn -0.855861 0.436085 0.278087
vn -0.528951 0.436085 0.728039
vn -0.528951 0.436085 0.728039
vn -0.528951 0.436085 0.728039
vn -0.528951 0.436085 0.728039
vn 0.000000 0.436084 0.899906
vn 0.000000 0.436084 0.899906
vn 0.000000 0.436084 0.899906
vn 0.000000 0.436084 0.899906
vn 0.528951 0.436085 0.728039
vn 0.528951 0.436084 0.728039
vn 0.528951 0.436084 0.728039
vn 0.528951 0.436084 0.728039
vn 0.855861 0.436085 0.278086
vn 0.855862 0.436084 0.278086
vn 0.855861 0.436084 0.278086
vn 0.855862 0.436083 0.278087
vn 0.855862 0.436084 -0.278086
vn 0.855861 0.436084 -0.278086
vn 0.855862 0.436084 -0.278086
vn 0.855861 0.436084 -0.278086
vn 0.425919 0.689151 -0.586228
vn 0.425920 0.689151 -0.586228
vn 0.425920 0.689151 -0.586228
vn 0.425921 0.689150 -0.586228
vn -0.000000 0.689151 -0.724618
vn -0.000000 0.689151 -0.724618
vn -0.000000 0.689151 -0.724618
vn -0.000000 0.689151 -0.724618
vn -0.425920 0.689151 -0.586228
vn -0.425920 0.689151 -0.586228
vn -0.425920 0.689151 -0.586228
vn -0.425920 0.689151 -0.586228
vn -0.689152 0.689152 -0.223919
vn -0.689152 0.689151 -0.223919
vn -0.689152 0.689151 -0.223919
vn -0.689152 0.689151 -0.223920
vn -0.689152 0.689151 0.223920
vn -0.689152 0.689151 0.223920
vn -0.689152 0.689151 0.223920
vn -0.689152 0.689151 0.223920
vn -0.425920 0.689151 0.586228
vn -0.425920 0.689151 0.586228
vn -0.425920 0.689151 0.586228
vn -0.425920 0.689151 0.586228
vn 0.000000 0.689151 0.724618
vn 0.000000 0.689151 0.724618
vn 0.000000 0.689151 0.724618
vn 0.000000 0.689151 0.724618
vn 0.425920 0.689151 0.586228
vn 0.425920 0.689151 0.586228
vn 0.425920 0.689151 0.586228
vn 0.425920 0.689151 0.586227
vn 0.689152 0.689152 0.223919
vn 0.689152 0.689152 0.223919
vn 0.689152 0.689152 0.223919
vn 0.689152 0.689152 0.223919
vn 0.689152 0.689152 -0.223919
vn 0.689152 0.689152 -0.223919
vn 0.689152 0.689152 -0.223919
vn 0.689152 0.689152 -0.223919
vn 0.277578 0.881468 -0.382053
vn 0.277578 0.881468 -0.382053
vn 0.277578 0.881468 -0.382053
vn 0.277577 0.881468 -0.382053
vn -0.000000 0.881468 -0.472243
vn -0.000000 0.881468 -0.472243
vn -0.000000 0.881468 -0.472243
vn -0.000000 0.881468 -0.472243
vn -0.277578 0.881468 -0.382053
vn -0.277578 0.881468 -0.382053
vn -0.277578 0.881468 -0.382053
vn -0.277578 0.881468 -0.382053
vn -0.449130 0.881468 -0.145932
vn -0.449130 0.881468 -0.145932
vn -0.449130 0.881468 -0.145932
vn -0.449130 0.881468 -0.145931
vn -0.449130 0.881468 0.145932
vn -0.449130 0.881468 0.145932
vn -0.449130 0.881468 0.145932
vn -0.449129 0.881469 0.145933
vn -0.277578 0.881468 0.382053
vn -0.277578 0.881468 0.382053
vn -0.277578 0.881468 0.382053
vn -0.277579 0.881468 0.382053
vn 0.000000 0.881468 0.472243
vn 0.000000 0.881468 0.472243
vn 0.000000 0.881468 0.472243
vn 0.000000 0.881468 0.472243
vn 0.277578 0.881468 0.382052
vn 0.277578 0.881468 0.382052
vn 0.277578 0.881468 0.382052
vn 0.277578 0.881468 0.382053
vn 0.449130 0.881468 0.145932
vn 0.449130 0.881468 0.145931
vn 0.449130 0.881468 0.145931
vn 0.449130 0.881468 0.145930
vn 0.449130 0.881468 -0.145931
vn 0.449130 0.881468 -0.145931
vn 0.449130 0.881468 -0.145931
vn 0.449131 0.881468 -0.145931
vn 0.096558 -0.986415 -0.132901
vn 0.096558 -0.986415 -0.132901
vn 0.096558 -0.986415 -0.132901
vn -0.000000 -0.986415 -0.164275
vn -0.000000 -0.986415 -0.164275
vn -0.000000 -0.986415 -0.164275
vn -0.096558 -0.986415 -0.132901
vn -0.096558 -0.986415 -0.132901
vn -0.096558 -0.986415 -0.132901
vn -0.156234 -0.986415 -0.050763
vn -0.156234 -0.986415 -0.050763
vn -0.156234 -0.986415 -0.050763
vn -0.156234 -0.986415 0.050764
vn -0.156234 -0.986415 0.050764
vn -0.156234 -0.986415 0.050764
vn -0.096558 -0.986415 0.132901
vn -0.096558 -0.986415 0.132901
vn -0.096558 -0.986415 0.132901
vn 0.000000 -0.986415 0.164275
vn 0.000000 -0.986415 0.164275
vn 0.000000 -0.986415 0.164275
vn 0.096558 -0.986415 0.132901
vn 0.096558 -0.986415 0.132901
vn 0.096558 -0.986415 0.132901
vn 0.156235 -0.986415 0.050764
vn 0.156235 -0.986415 0.050764
vn 0.156235 -0.986415 0.050764
vn 0.156235 -0.986415 -0.050764
vn 0.156235 -0.986415 -0.050764
vn 0.156235 -0.986415 -0.050764
vn 0.096557 0.986415 -0.132900
vn 0.096557 0.986415 -0.132900
vn 0.096557 0.986415 -0.132900
vn -0.000000 0.986415 -0.164273
vn -0.000000 0.986415 -0.164273
vn -0.000000 0.986415 -0.164273
vn -0.096557 0.986415 -0.132899
vn -0.096557 0.986415 -0.132899
vn -0.096557 0.986415 -0.132899
vn -0.156233 0.986415 -0.050763
vn -0.156233 0.986415 -0.050763
vn -0.156233 0.986415 -0.050763
vn -0.156233 0.986415 0.050763
vn -0.156233 0.986415 0.050763
vn -0.156233 0.986415 0.050763
vn -0.096558 0.986415 0.132900
vn -0.096558 0.986415 0.132900
vn -0.096558 0.986415 0.132900
vn 0.000000 0.986415 0.164273
vn 0.000000 0.986415 0.164273
vn 0.000000 0.986415 0.164273
vn 0.096557 0.986415 0.132900
vn 0.096557 0.986415 0.132900
vn 0.096557 0.986415 0.132900
vn 0.156233 0.986415 0.050762
vn 0.156233 0.986415 0.050762
vn 0.156233 0.986415 0.050762
vn 0.156233 0.986415 -0.050762
vn 0.156233 0.986415 -0.050762
vn 0.156233 0.986415 -0.050762
s 1
g textureBakeSet20 pSphere1 Disco_Ball
usemtl baked_lambert56SG_pSphere1SG
f 1/1/1 2/100/2 11/3/3
f 11/3/3 2/100/2 12/2/4
s 2
f 2/100/5 3/92/6 12/2/7
f 12/2/7 3/92/6 13/93/8
s 3
f 3/4/9 4/6/10 13/5/11
f 13/5/11 4/6/10 14/7/12
s 4
f 4/6/13 5/8/14 14/7/15
f 14/7/15 5/8/14 15/9/16
s 5
f 5/8/17 6/10/18 15/9/19
f 15/9/19 6/10/18 16/11/20
s 6
f 6/10/21 7/12/22 16/11/23
f 16/11/23 7/12/22 17/13/24
s 7
f 7/12/25 8/14/26 17/13/27
f 17/13/27 8/14/26 18/15/28
s 8
f 8/14/29 9/16/30 18/15/31
f 18/15/31 9/16/30 19/17/32
s 9
f 9/16/33 10/18/34 19/17/35
f 19/17/35 10/18/34 20/19/36
s 10
f 10/18/37 1/1/38 20/19/39
f 20/19/39 1/1/38 11/3/40
s 11
f 11/3/41 12/2/42 21/21/43
f 21/21/43 12/2/42 22/20/44
s 12
f 12/2/45 13/93/46 22/20/47
f 22/20/47 13/93/46 23/94/48
s 13
f 13/5/49 14/7/50 23/22/51
f 23/22/51 14/7/50 24/23/52
s 14
f 14/7/53 15/9/54 24/23/55
f 24/23/55 15/9/54 25/24/56
s 15
f 15/9/57 16/11/58 25/24/59
f 25/24/59 16/11/58 26/25/60
s 16
f 16/11/61 17/13/62 26/25/63
f 26/25/63 17/13/62 27/26/64
s 17
f 17/13/65 18/15/66 27/26/67
f 27/26/67 18/15/66 28/27/68
s 18
f 18/15/69 19/17/70 28/27/71
f 28/27/71 19/17/70 29/28/72
s 19
f 19/17/73 20/19/74 29/28/75
f 29/28/75 20/19/74 30/29/76
s 20
f 20/19/77 11/3/78 30/29/79
f 30/29/79 11/3/78 21/21/80
s 21
f 21/21/81 22/20/82 31/31/83
f 31/31/83 22/20/82 32/30/84
s 22
f 22/20/85 23/94/86 32/30/87
f 32/30/87 23/94/86 33/95/88
s 23
f 23/22/89 24/23/90 33/32/91
f 33/32/91 24/23/90 34/33/92
s 24
f 24/23/93 25/24/94 34/33/95
f 34/33/95 25/24/94 35/34/96
s 25
f 25/24/97 26/25/98 35/34/99
f 35/34/99 26/25/98 36/35/100
s 26
f 26/25/101 27/26/102 36/35/103
f 36/35/103 27/26/102 37/36/104
s 27
f 27/26/105 28/27/106 37/36/107
f 37/36/107 28/27/106 38/37/108
s 28
f 28/27/109 29/28/110 38/37/111
f 38/37/111 29/28/110 39/38/112
s 29
f 29/28/113 30/29/114 39/38/115
f 39/38/115 30/29/114 40/39/116
s 30
f 30/29/117 21/21/118 40/39/119
f 40/39/119 21/21/118 31/31/120
s 31
f 31/31/121 32/30/122 41/41/123
f 41/41/123 32/30/122 42/40/124
s 32
f 32/30/125 33/95/126 42/40/127
f 42/40/127 33/95/126 43/96/128
s 33
f 33/32/129 34/33/130 43/42/131
f 43/42/131 34/33/130 44/43/132
s 34
f 34/33/133 35/34/134 44/43/135
f 44/43/135 35/34/134 45/44/136
s 35
f 35/34/137 36/35/138 45/44/139
f 45/44/139 36/35/138 46/45/140
s 36
f 36/35/141 37/36/142 46/45/143
f 46/45/143 37/36/142 47/46/144
s 37
f 37/36/145 38/37/146 47/46/147
f 47/46/147 38/37/146 48/47/148
s 38
f 38/37/149 39/38/150 48/47/151
f 48/47/151 39/38/150 49/48/152
s 39
f 39/38/153 40/39/154 49/48/155
f 49/48/155 40/39/154 50/49/156
s 40
f 40/39/157 31/31/158 50/49/159
f 50/49/159 31/31/158 41/41/160
s 41
f 41/41/161 42/40/162 51/51/163
f 51/51/163 42/40/162 52/50/164
s 42
f 42/40/165 43/96/166 52/50/167
f 52/50/167 43/96/166 53/97/168
s 43
f 43/42/169 44/43/170 53/52/171
f 53/52/171 44/43/170 54/53/172
s 44
f 44/43/173 45/44/174 54/53/175
f 54/53/175 45/44/174 55/54/176
s 45
f 45/44/177 46/45/178 55/54/179
f 55/54/179 46/45/178 56/55/180
s 46
f 46/45/181 47/46/182 56/55/183
f 56/55/183 47/46/182 57/56/184
s 47
f 47/46/185 48/47/186 57/56/187
f 57/56/187 48/47/186 58/57/188
s 48
f 48/47/189 49/48/190 58/57/191
f 58/57/191 49/48/190 59/58/192
s 49
f 49/48/193 50/49/194 59/58/195
f 59/58/195 50/49/194 60/59/196
s 50
f 50/49/197 41/41/198 60/59/199
f 60/59/199 41/41/198 51/51/200
s 51
f 51/51/201 52/50/202 61/61/203
f 61/61/203 52/50/202 62/60/204
s 52
f 52/50/205 53/97/206 62/60/207
f 62/60/207 53/97/206 63/98/208
s 53
f 53/52/209 54/53/210 63/62/211
f 63/62/211 54/53/210 64/63/212
s 54
f 54/53/213 55/54/214 64/63/215
f 64/63/215 55/54/214 65/64/216
s 55
f 55/54/217 56/55/218 65/64/219
f 65/64/219 56/55/218 66/65/220
s 56
f 56/55/221 57/56/222 66/65/223
f 66/65/223 57/56/222 67/66/224
s 57
f 57/56/225 58/57/226 67/66/227
f 67/66/227 58/57/226 68/67/228
s 58
f 58/57/229 59/58/230 68/67/231
f 68/67/231 59/58/230 69/68/232
s 59
f 59/58/233 60/59/234 69/68/235
f 69/68/235 60/59/234 70/69/236
s 60
f 60/59/237 51/51/238 70/69/239
f 70/69/239 51/51/238 61/61/240
s 61
f 61/61/241 62/60/242 71/71/243
f 71/71/243 62/60/242 72/70/244
s 62
f 62/60/245 63/98/246 72/70/247
f 72/70/247 63/98/246 73/99/248
s 63
f 63/62/249 64/63/250 73/72/251
f 73/72/251 64/63/250 74/73/252
s 64
f 64/63/253 65/64/254 74/73/255
f 74/73/255 65/64/254 75/74/256
s 65
f 65/64/257 66/65/258 75/74/259
f 75/74/259 66/65/258 76/75/260
s 66
f 66/65/261 67/66/262 76/75/263
f 76/75/263 67/66/262 77/76/264
s 67
f 67/66/265 68/67/266 77/76/267
f 77/76/267 68/67/266 78/77/268
s 68
f 68/67/269 69/68/270 78/77/271
f 78/77/271 69/68/270 79/78/272
s 69
f 69/68/273 70/69/274 79/78/275
f 79/78/275 70/69/274 80/79/276
s 70
f 70/69/277 61/61/278 80/79/279
f 80/79/279 61/61/278 71/71/280
s 71
f 71/71/281 72/70/282 81/81/283
f 81/81/283 72/70/282 82/80/284
s 72
f 72/70/285 73/99/286 82/80/287
f 82/80/287 73/99/286 83/101/288
s 73
f 73/72/289 74/73/290 83/82/291
f 83/82/291 74/73/290 84/83/292
s 74
f 74/73/293 75/74/294 84/83/295
f 84/83/295 75/74/294 85/84/296
s 75
f 75/74/297 76/75/298 85/84/299
f 85/84/299 76/75/298 86/85/300
s 76
f 76/75/301 77/76/302 86/85/303
f 86/85/303 77/76/302 87/86/304
s 77
f 77/76/305 78/77/306 87/86/307
f 87/86/307 78/77/306 88/87/308
s 78
f 78/77/309 79/78/310 88/87/311
f 88/87/311 79/78/310 89/88/312
s 79
f 79/78/313 80/79/314 89/88/315
f 89/88/315 80/79/314 90/89/316
s 80
f 80/79/317 71/71/318 90/89/319
f 90/89/319 71/71/318 81/81/320
s off
f 2/100/321 1/1/322 91/90/323
f 3/92/324 2/100/325 91/90/326
f 4/6/327 3/4/328 91/90/329
f 5/8/330 4/6/331 91/90/332
f 6/10/333 5/8/334 91/90/335
f 7/12/336 6/10/337 91/90/338
f 8/14/339 7/12/340 91/90/341
f 9/16/342 8/14/343 91/90/344
f 10/18/345 9/16/346 91/90/347
f 1/1/348 10/18/349 91/90/350
f 81/81/351 82/80/352 92/91/353
f 82/80/354 83/101/355 92/91/356
f 83/82/357 84/83/358 92/91/359
f 84/83/360 85/84/361 92/91/362
f 85/84/363 86/85/364 92/91/365
f 86/85/366 87/86/367 92/91/368
f 87/86/369 88/87/370 92/91/371
f 88/87/372 89/88/373 92/91/374
f 89/88/375 90/89/376 92/91/377
f 90/89/378 81/81/379 92/91/380
