# This file uses centimeters as units for non-parametric coordinates.

mtllib Building33_T2.mtl
g default
v 137.561234 21.557610 276.601685
v 159.097183 21.557610 276.601685
v 136.241562 23.186256 277.826172
v 160.416870 23.186256 277.826172
v 136.241562 23.186256 255.394913
v 160.416870 23.186256 255.394913
v 137.561234 21.557610 256.619385
v 159.097183 21.557610 256.619385
v 148.329224 30.711239 266.610535
v 137.588715 -0.156305 276.476715
v 159.049469 -0.156305 276.476715
v 137.588715 22.395653 276.476715
v 159.049469 22.395653 276.476715
v 137.588715 22.395653 256.815674
v 159.049469 22.395653 256.815674
v 137.588715 -0.156305 256.815674
v 159.049469 -0.156305 256.815674
v 137.524902 14.041308 264.423584
v 137.524902 21.342840 264.423584
v 137.524902 14.041308 259.359985
v 137.524902 21.342840 259.359985
v 137.410065 14.041306 274.018585
v 137.410065 21.342840 274.018585
v 137.410065 14.041306 268.954987
v 137.410065 21.342840 268.954987
v 137.530777 0.043403 269.267975
v 137.530777 6.668072 269.267975
v 137.530777 0.043403 263.735504
v 137.530777 6.668072 263.735504
v 159.153137 14.041309 268.857300
v 159.153137 21.342842 268.857300
v 159.153137 14.041309 273.920898
v 159.153137 21.342842 273.920898
v 159.153137 14.041309 259.359985
v 159.153137 21.342842 259.359985
v 159.153137 14.041309 264.423584
v 159.153137 21.342842 264.423584
vt 0.366119 0.538410
vt 0.571461 0.538410
vt 0.584044 0.553939
vt 0.353536 0.553939
vt 0.626605 0.660898
vt 0.490006 0.745936
vt 0.353408 0.660898
vt 0.368322 0.642494
vt 0.372568 0.759070
vt 0.607697 0.759070
vt 0.369699 0.878886
vt 0.610934 0.878886
vt 0.611692 0.642494
vt 0.027518 0.642001
vt 0.345969 0.642001
vt 0.027518 0.979802
vt 0.345969 0.979802
vt 0.937082 0.588731
vt 0.597942 0.588731
vt 0.937082 0.255875
vt 0.597942 0.255875
vt 0.635395 0.599196
vt 0.967567 0.599196
vt 0.635395 0.980211
vt 0.967567 0.980211
vt 0.030529 0.275588
vt 0.347666 0.275588
vt 0.030529 0.616068
vt 0.347666 0.616068
vt 0.112640 0.009756
vt 0.112640 0.241212
vt 0.016093 0.009756
vt 0.016093 0.241212
vt 0.352694 0.008585
vt 0.352694 0.239607
vt 0.260040 0.008585
vt 0.260040 0.239607
vt 0.760805 0.002631
vt 0.760805 0.244943
vt 0.503536 0.002631
vt 0.503536 0.244943
vt 0.235728 0.011337
vt 0.235728 0.241508
vt 0.138018 0.011337
vt 0.138018 0.241508
vt 0.494204 0.007432
vt 0.494204 0.243592
vt 0.384642 0.007432
vt 0.384642 0.243592
vt 0.625717 0.898547
vt 0.354917 0.898547
vt 0.490317 0.989392
vt 0.622105 0.778234
vt 0.358160 0.778234
vt 0.490133 0.866780
vt 0.468790 0.625688
vn 0.000000 -0.600942 0.799292
vn 0.000000 -0.600942 0.799293
vn 0.000000 -0.600942 0.799293
vn 0.000000 -0.600942 0.799293
vn -0.286197 0.909427 -0.301718
vn 0.000000 1.000000 -0.000000
vn 0.286198 0.909427 -0.301718
vn 0.000000 -0.600937 -0.799296
vn 0.000000 -0.600938 -0.799296
vn 0.000000 -0.600938 -0.799296
vn 0.000000 -0.600938 -0.799296
vn 0.776956 -0.629555 0.000000
vn 0.776952 -0.629560 0.000000
vn 0.776952 -0.629560 0.000000
vn 0.776949 -0.629564 0.000000
vn -0.776958 -0.629552 0.000000
vn -0.776956 -0.629556 0.000000
vn -0.776956 -0.629556 0.000000
vn -0.776953 -0.629559 0.000000
vn -0.286197 0.909427 0.301718
vn 0.286198 0.909427 0.301718
vn 0.000000 0.000000 1.000000
vn 0.000000 0.000000 1.000000
vn 0.000000 0.000000 1.000000
vn 0.000000 0.000000 1.000000
vn 0.000000 0.000000 -1.000000
vn 0.000000 0.000000 -1.000000
vn 0.000000 0.000000 -1.000000
vn 0.000000 0.000000 -1.000000
vn 1.000000 0.000000 0.000000
vn 1.000000 0.000000 0.000000
vn 1.000000 0.000000 0.000000
vn 1.000000 0.000000 0.000000
vn -1.000000 0.000000 0.000000
vn -1.000000 0.000000 0.000000
vn -1.000000 0.000000 0.000000
vn -1.000000 0.000000 0.000000
vn -1.000000 0.000000 0.000000
vn -1.000000 0.000000 0.000000
vn -1.000000 0.000000 0.000000
vn -1.000000 0.000000 0.000000
vn -1.000000 0.000000 0.000000
vn -1.000000 0.000000 0.000000
vn -1.000000 0.000000 0.000000
vn -1.000000 0.000000 0.000000
vn -1.000000 0.000000 0.000000
vn -1.000000 0.000000 0.000000
vn -1.000000 0.000000 0.000000
vn -1.000000 0.000000 0.000000
vn 1.000000 0.000000 0.000000
vn 1.000000 0.000000 0.000000
vn 1.000000 0.000000 0.000000
vn 1.000000 0.000000 0.000000
vn 1.000000 0.000000 0.000000
vn 1.000000 0.000000 0.000000
vn 1.000000 0.000000 0.000000
vn 1.000000 0.000000 0.000000
s 1
g textureBakeSet26 Building33_T2
usemtl baked_lambert6SG_Building33_T2SG
f 1/1/1 2/2/2 3/4/3
f 3/4/3 2/2/2 4/3/4
s 2
f 5/5/5 9/6/6 6/7/7
s 3
f 5/5/8 6/7/9 7/13/10
f 7/13/10 6/7/9 8/8/11
s 4
f 2/9/12 8/10/13 4/54/14
f 4/54/14 8/10/13 6/53/15
s 5
f 7/11/16 1/12/17 5/51/18
f 5/51/18 1/12/17 3/50/19
s 2
f 3/4/20 4/3/21 9/56/6
f 9/55/6 4/54/21 6/53/7
f 3/50/20 9/52/6 5/51/5
s 6
f 10/14/22 11/15/23 12/16/24
f 12/16/24 11/15/23 13/17/25
s 7
f 14/18/26 15/19/27 16/20/28
f 16/20/28 15/19/27 17/21/29
s 8
f 11/22/30 17/23/31 13/24/32
f 13/24/32 17/23/31 15/25/33
s 9
f 16/26/34 10/27/35 14/28/36
f 14/28/36 10/27/35 12/29/37
s 10
f 18/30/38 19/31/39 20/32/40
f 20/32/40 19/31/39 21/33/41
s 11
f 22/34/42 23/35/43 24/36/44
f 24/36/44 23/35/43 25/37/45
s 12
f 26/38/46 27/39/47 28/40/48
f 28/40/48 27/39/47 29/41/49
s 13
f 30/42/50 31/43/51 32/44/52
f 32/44/52 31/43/51 33/45/53
s 14
f 34/46/54 35/47/55 36/48/56
f 36/48/56 35/47/55 37/49/57
