# This file uses centimeters as units for non-parametric coordinates.

mtllib Building18_T1.mtl
g default
v 46.846348 0.013835 244.224060
v 46.846348 6.638504 245.468231
v 41.313892 0.013835 244.224060
v 41.313892 6.638504 245.468231
v 21.959599 -0.397528 243.741608
v 64.453217 -0.397528 243.741745
v 21.959599 26.070610 243.741653
v 64.453217 26.070610 243.741745
v 21.959602 26.070610 223.266205
v 64.453217 26.070610 223.266327
v 21.959602 -0.397528 223.266190
v 64.453217 -0.397528 223.266327
v 41.313889 -0.201507 222.691513
v 41.313889 6.423162 221.633270
v 46.846344 -0.201507 222.691513
v 46.846344 6.423162 221.633270
v 58.667381 26.480843 227.342972
v 26.687529 26.480844 227.342972
v 58.667381 26.480843 239.537643
v 26.687529 26.480844 239.537643
v 44.624928 13.660739 247.031128
v 16.710434 14.083095 247.031021
v 69.702377 13.281288 247.031189
v 41.812462 13.673013 219.976837
v 16.710440 14.431915 219.976776
v 16.710440 14.282287 219.976746
v 69.702377 12.996074 219.976929
v 69.702377 13.125269 232.232529
v 16.710438 14.256014 233.619629
vt 0.747353 0.002615
vt 0.747353 0.243188
vt 0.503855 0.002615
vt 0.503855 0.243188
vt 0.027975 0.721468
vt 0.445723 0.721468
vt 0.027975 0.981672
vt 0.445723 0.981672
vt 0.041801 0.271124
vt 0.436108 0.271124
vt 0.041801 0.425726
vt 0.436108 0.425726
vt 0.449772 0.704996
vt 0.028136 0.704996
vt 0.449772 0.442369
vt 0.028136 0.442369
vt 0.460178 0.373095
vt 0.695607 0.373095
vt 0.460178 0.677430
vt 0.695607 0.677430
vt 0.466359 0.687829
vt 0.693637 0.687829
vt 0.466359 0.981627
vt 0.693637 0.981627
vt 0.994416 0.002232
vt 0.994416 0.243434
vt 0.757113 0.002232
vt 0.757113 0.243434
vt 0.478194 0.235265
vt 0.267565 0.235265
vt 0.478194 0.154947
vt 0.267565 0.154947
vt 0.027975 0.848757
vt 0.248031 0.844605
vt 0.445723 0.840874
vt 0.250045 0.566774
vt 0.449772 0.572819
vt 0.449772 0.574304
vt 0.028136 0.560057
vt 0.460178 0.512753
vt 0.588957 0.510959
vt 0.695607 0.509474
vt 0.466359 0.835424
vt 0.580970 0.833471
vt 0.693637 0.831552
vt 0.466359 0.833763
vn 0.000000 -0.184582 0.982817
vn 0.000000 -0.184582 0.982817
vn 0.000000 -0.184582 0.982817
vn 0.000000 -0.184582 0.982817
vn 0.000000 -0.157743 -0.987480
vn 0.000000 -0.157743 -0.987480
vn 0.000000 -0.157743 -0.987480
vn 0.000000 -0.157743 -0.987480
vn 0.000000 1.000000 0.000000
vn 0.000000 1.000000 0.000000
vn 0.000000 1.000000 0.000000
vn 0.000000 1.000000 0.000000
vn 0.003976 0.262997 0.964789
vn 0.002587 0.256592 0.966516
vn 0.001987 0.259609 0.965712
vn 0.003788 0.250552 0.968096
vn 0.001893 0.253386 0.967363
vn 0.000000 1.000000 -0.000000
vn 0.000000 1.000000 -0.000000
vn 0.000000 1.000000 -0.000000
vn 0.000000 1.000000 0.000000
vn 0.002991 0.251351 -0.967892
vn 0.003551 0.194100 -0.980975
vn 0.004063 0.262520 -0.964918
vn 0.000008 0.000204 -1.000000
vn 0.004104 0.135639 -0.990750
vn 0.005980 0.246238 -0.969191
vn 0.925464 0.378814 -0.003994
vn 0.926614 0.376004 -0.002643
vn 0.926092 0.377293 -0.001997
vn 0.927652 0.373425 -0.003936
vn 0.927185 0.374598 -0.001968
vn -0.912123 0.409882 0.005285
vn -0.913834 0.406074 0.003490
vn -0.912998 0.407956 0.002642
vn -0.915492 0.402304 0.005187
vn -0.914682 0.404166 0.002593
vn -0.940937 -0.338574 -0.002192
vn -0.966586 -0.256338 -0.001272
vn -0.941494 -0.337031 -0.000324
vn -1.000000 0.000000 -0.000000
vn -0.985283 -0.170930 -0.000329
vn -0.940447 -0.339912 -0.004383
vn -0.003372 -0.222678 0.974886
vn -0.001688 -0.225256 0.974298
vn -0.002299 -0.227683 0.973733
vn -0.001762 -0.230184 0.973146
vn -0.003521 -0.232533 0.972582
vn 0.933306 -0.359061 0.003786
vn 0.932771 -0.360464 0.001893
vn 0.932304 -0.361668 0.002541
vn 0.931799 -0.362970 0.001919
vn 0.931362 -0.364074 0.003838
vn -0.005734 -0.236383 -0.971643
vn -0.002866 -0.232016 -0.972708
vn -0.003693 -0.228172 -0.973614
vn -0.002672 -0.224061 -0.974572
vn -0.005347 -0.220474 -0.975378
s 1
g textureBakeSet24 Building18_T1
usemtl baked_lambert4SG_Building18_T1SG
f 1/1/1 2/2/2 3/3/3
f 3/3/3 2/2/2 4/4/4
s 2
f 13/25/5 14/26/6 15/27/7
f 15/27/7 14/26/6 16/28/8
s 3
f 17/29/9 18/30/10 19/31/11
f 19/31/11 18/30/10 20/32/12
s 4
f 22/33/13 21/34/14 7/7/15
f 23/35/16 8/8/17 21/34/14
f 21/34/14 8/8/17 7/7/15
s 5
f 7/9/18 8/10/19 9/11/20
f 9/11/20 8/10/19 10/12/21
s 6
f 10/14/22 24/36/23 9/13/24
f 26/37/25 25/38/26 24/36/23
f 24/36/23 25/38/26 9/13/24
f 27/39/27 24/36/23 10/14/22
s 7
f 23/40/28 28/41/29 8/19/30
f 27/42/31 10/20/32 28/41/29
f 28/41/29 10/20/32 8/19/30
s 8
f 25/43/33 29/44/34 9/23/35
f 22/45/36 7/24/37 29/44/34
f 29/44/34 7/24/37 9/23/35
s 9
f 5/22/38 29/44/39 11/21/40
f 25/43/41 26/46/42 29/44/39
f 29/44/39 26/46/42 11/21/40
f 22/45/43 29/44/39 5/22/38
s 10
f 22/33/44 5/5/45 21/34/46
f 21/34/46 5/5/45 6/6/47
f 23/35/48 21/34/46 6/6/47
s 11
f 23/40/49 6/17/50 28/41/51
f 28/41/51 6/17/50 12/18/52
f 27/42/53 28/41/51 12/18/52
s 12
f 27/39/54 12/16/55 24/36/56
f 24/36/56 12/16/55 11/15/57
f 26/37/58 24/36/56 11/15/57
