# This file uses centimeters as units for non-parametric coordinates.

mtllib Building30_T3.mtl
g default
v 74.918213 22.428204 108.457565
v 102.438057 22.428204 108.457565
v 73.231842 24.056850 109.843086
v 104.124420 24.056850 109.843086
v 73.231842 24.056850 84.461723
v 104.124420 24.056850 84.461723
v 74.918213 22.428204 85.847244
v 102.438057 22.428204 85.847244
v 88.678146 31.581833 97.152405
v 75.100471 -0.225072 108.231598
v 102.244110 -0.225072 108.231598
v 75.100433 23.883533 108.231598
v 102.244110 23.883533 108.231598
v 75.100433 23.883533 86.127213
v 102.244110 23.883533 86.127213
v 75.100471 -0.225072 86.127213
v 102.244110 -0.225072 86.127213
v 90.878265 15.577891 86.028618
v 90.878265 19.976988 86.028618
v 98.883408 15.577891 86.028618
v 98.883408 19.976988 86.028618
v 78.067589 15.577889 86.028618
v 78.067589 19.976988 86.028618
v 86.072731 15.577889 86.028618
v 86.072731 19.976988 86.028618
v 79.864136 2.447791 85.832237
v 79.864136 6.846889 85.832237
v 97.370514 2.447791 85.832237
v 97.370514 6.846889 85.832237
v 74.889961 15.458000 104.383087
v 74.889961 19.857098 104.383087
v 74.889961 15.458000 89.639488
v 74.889961 19.857098 89.639488
v 102.322968 15.810353 89.639488
v 102.322968 20.209452 89.639488
v 102.322968 15.810353 104.383087
v 102.322968 20.209452 104.383087
v 102.388428 -0.063213 94.181244
v 102.388428 6.561456 94.181244
v 102.388428 -0.063213 99.713699
v 102.388428 6.561456 99.713699
v 91.016754 -0.060235 108.272491
v 91.016754 6.564433 108.272491
v 85.484299 -0.060235 108.272491
v 85.484299 6.564433 108.272491
vt 0.704088 0.722934
vt 0.976638 0.722934
vt 0.993340 0.739063
vt 0.687387 0.739063
vt 0.994142 0.840279
vt 0.839874 0.915434
vt 0.685606 0.840279
vt 0.702448 0.824013
vt 0.715474 0.491548
vt 0.983281 0.491548
vt 0.709619 0.604157
vt 0.979877 0.604800
vt 0.977300 0.824013
vt 0.349123 0.340474
vt 0.689638 0.340474
vt 0.349123 0.642915
vt 0.689638 0.642915
vt 0.714244 0.263031
vt 0.983448 0.263031
vt 0.714244 0.482256
vt 0.983448 0.482256
vt 0.676151 0.973316
vt 0.345998 0.973316
vt 0.676151 0.680078
vt 0.345998 0.680078
vt 0.014187 0.659127
vt 0.313091 0.659127
vt 0.014187 0.985134
vt 0.313091 0.985134
vt 0.013644 0.307237
vt 0.316351 0.307237
vt 0.013644 0.637391
vt 0.316351 0.637391
vt 0.132209 0.099722
vt 0.132209 0.167267
vt 0.009296 0.099722
vt 0.009296 0.167267
vt 0.385279 0.098366
vt 0.385279 0.167183
vt 0.260052 0.098366
vt 0.260052 0.167183
vt 0.239106 0.022221
vt 0.239106 0.080297
vt 0.007991 0.022221
vt 0.007991 0.080297
vt 0.238793 0.175832
vt 0.238793 0.243624
vt 0.011588 0.175832
vt 0.011588 0.243624
vt 0.492655 0.175297
vt 0.492655 0.243737
vt 0.263279 0.175297
vt 0.263279 0.243737
vt 0.995730 0.003204
vt 0.995730 0.246489
vt 0.740469 0.003204
vt 0.740469 0.246489
vt 0.737191 0.002545
vt 0.737191 0.245220
vt 0.502648 0.002545
vt 0.502648 0.245220
vt 0.999692 0.510839
vt 0.699064 0.510839
vt 0.849378 0.599968
vt 0.996391 0.624306
vt 0.693011 0.623585
vt 0.844487 0.713890
vt 0.840364 0.813589
vn 0.000000 -0.647966 0.761669
vn 0.000000 -0.647966 0.761669
vn 0.000000 -0.647966 0.761669
vn 0.000000 -0.647966 0.761669
vn -0.232560 0.934114 -0.270829
vn 0.000000 1.000000 0.000000
vn 0.232560 0.934113 -0.270829
vn 0.000000 -0.647966 -0.761669
vn 0.000000 -0.647966 -0.761669
vn 0.000000 -0.647966 -0.761669
vn 0.000000 -0.647966 -0.761669
vn 0.694693 -0.719306 0.000000
vn 0.694693 -0.719306 0.000000
vn 0.694693 -0.719306 0.000000
vn 0.694693 -0.719306 0.000000
vn -0.694690 -0.719309 0.000000
vn -0.694690 -0.719309 0.000000
vn -0.694690 -0.719309 0.000000
vn -0.694690 -0.719309 0.000000
vn -0.232560 0.934114 0.270829
vn 0.232560 0.934113 0.270829
vn 0.000000 0.000000 1.000000
vn 0.000000 0.000000 1.000000
vn 0.000000 0.000000 1.000000
vn 0.000000 0.000000 1.000000
vn 0.000000 1.000000 0.000000
vn 0.000000 1.000000 0.000000
vn 0.000000 1.000000 0.000000
vn 0.000000 1.000000 0.000000
vn 0.000000 0.000000 -1.000000
vn 0.000000 0.000000 -1.000000
vn 0.000000 0.000000 -1.000000
vn 0.000000 0.000000 -1.000000
vn 1.000000 0.000000 0.000000
vn 1.000000 0.000000 0.000000
vn 1.000000 0.000000 0.000000
vn 1.000000 0.000000 0.000000
vn -1.000000 -0.000002 0.000000
vn -1.000000 -0.000002 0.000000
vn -1.000000 -0.000002 0.000000
vn -1.000000 -0.000001 0.000000
vn 0.000000 0.000000 -1.000000
vn 0.000000 0.000000 -1.000000
vn 0.000000 0.000000 -1.000000
vn 0.000000 0.000000 -1.000000
vn 0.000000 0.000000 -1.000000
vn 0.000000 0.000000 -1.000000
vn 0.000000 0.000000 -1.000000
vn 0.000000 0.000000 -1.000000
vn -0.000000 0.000000 -1.000000
vn -0.000000 0.000000 -1.000000
vn -0.000000 0.000000 -1.000000
vn 0.000000 0.000000 -1.000000
vn -1.000000 0.000000 0.000000
vn -1.000000 0.000000 0.000000
vn -1.000000 0.000000 0.000000
vn -1.000000 0.000000 0.000000
vn 1.000000 0.000000 0.000000
vn 1.000000 0.000000 0.000000
vn 1.000000 0.000000 0.000000
vn 1.000000 0.000000 0.000000
vn 1.000000 0.000000 0.000000
vn 1.000000 0.000000 0.000000
vn 1.000000 0.000000 0.000000
vn 1.000000 0.000000 0.000000
vn 0.000000 0.000000 1.000000
vn 0.000000 0.000000 1.000000
vn 0.000000 0.000000 1.000000
vn 0.000000 0.000000 1.000000
s off
g textureBakeSet5 Building30_T3
usemtl baked_lambert7SG_Building30SG
f 1/1/1 2/2/2 4/3/3 3/4/4
s 1
f 5/5/5 9/6/6 6/7/7
s off
f 5/5/8 6/7/9 8/8/10 7/13/11
f 2/9/12 8/10/13 6/62/14 4/63/15
f 7/11/16 1/12/17 3/65/18 5/66/19
s 1
f 3/4/20 4/3/21 9/68/6
f 9/64/6 4/63/21 6/62/7
f 3/65/20 9/67/6 5/66/5
s 2
f 10/14/22 11/15/23 12/16/24
f 12/16/24 11/15/23 13/17/25
s 3
f 12/18/26 13/19/27 14/20/28
f 14/20/28 13/19/27 15/21/29
s 4
f 14/22/30 15/23/31 16/24/32
f 16/24/32 15/23/31 17/25/33
s 5
f 11/26/34 17/27/35 13/28/36
f 13/28/36 17/27/35 15/29/37
s 6
f 16/30/38 10/31/39 14/32/40
f 14/32/40 10/31/39 12/33/41
s 7
f 18/34/42 19/35/43 20/36/44
f 20/36/44 19/35/43 21/37/45
s 8
f 22/38/46 23/39/47 24/40/48
f 24/40/48 23/39/47 25/41/49
s 9
f 26/42/50 27/43/51 28/44/52
f 28/44/52 27/43/51 29/45/53
s 10
f 30/46/54 31/47/55 32/48/56
f 32/48/56 31/47/55 33/49/57
s 11
f 34/50/58 35/51/59 36/52/60
f 36/52/60 35/51/59 37/53/61
s 12
f 38/54/62 39/55/63 40/56/64
f 40/56/64 39/55/63 41/57/65
s 13
f 42/58/66 43/59/67 44/60/68
f 44/60/68 43/59/67 45/61/69
