# This file uses centimeters as units for non-parametric coordinates.

mtllib Building14_T2.mtl
g default
v 46.072598 -0.436098 76.989319
v 46.072598 6.188571 76.989319
v 51.605053 -0.436097 76.989319
v 51.605053 6.188571 76.989319
v 50.267551 9.889956 76.989319
v 50.267551 12.813098 76.989319
v 59.073147 9.889956 76.989319
v 59.073147 12.813098 76.989319
v 38.533543 9.889956 76.989319
v 38.533543 12.813098 76.989319
v 47.339138 9.889956 76.989319
v 47.339138 12.813100 76.989319
v 50.267551 17.326351 76.989319
v 50.267551 20.249491 76.989319
v 59.073147 17.326349 76.989319
v 59.073147 20.249491 76.989319
v 38.533543 17.326353 76.989319
v 38.533543 20.249493 76.989319
v 47.339138 17.326353 76.989319
v 47.339138 20.249493 76.989319
v 38.533543 25.049221 76.989319
v 38.533543 27.972363 76.989319
v 47.339138 25.049221 76.989319
v 47.339138 27.972363 76.989319
v 50.267551 25.049219 76.989319
v 50.267551 27.972361 76.989319
v 59.073147 25.049219 76.989319
v 59.073147 27.972361 76.989319
v 50.267551 31.580755 76.989319
v 50.267551 34.503895 76.989319
v 59.073147 31.580755 76.989319
v 59.073147 34.503895 76.989319
v 38.533543 31.580755 76.989319
v 38.533543 34.503895 76.989319
v 47.339138 31.580755 76.989319
v 47.339138 34.503895 76.989319
v 36.572651 -0.585979 102.925392
v 61.171532 -0.585979 102.925362
v 42.651550 40.041241 107.671295
v 55.297909 40.068665 107.698021
v 36.572651 35.372684 77.151802
v 61.171532 35.372684 77.151802
v 36.572651 -0.585979 77.151802
v 61.171532 -0.585979 77.151794
v 61.019428 33.283253 78.409836
v 61.019428 34.097515 78.409836
v 59.624195 33.283253 85.516281
v 59.624195 34.097515 85.516281
v 61.019428 26.704901 78.409836
v 61.019428 27.519165 78.409836
v 59.624195 26.704901 85.516281
v 59.624195 27.519165 85.516281
v 61.019428 18.805498 78.409836
v 61.019428 19.619761 78.409836
v 59.624195 18.805498 85.516281
v 59.624195 19.619761 85.516281
v 61.019428 11.600924 78.409836
v 61.019428 12.415186 78.409836
v 59.624195 11.600924 85.516281
v 59.624195 12.415186 85.516281
v 37.787674 33.283249 85.292763
v 37.787674 34.097511 85.292763
v 36.499329 33.283249 78.166168
v 36.499329 34.097511 78.166168
v 36.635380 26.704899 85.055275
v 36.635380 27.519161 85.055275
v 36.321140 26.704899 77.819984
v 36.321140 27.519161 77.819984
v 36.483994 18.625631 85.022751
v 36.494125 19.455437 85.021187
v 36.561554 18.609743 77.782990
v 36.565170 19.423990 77.779495
v 36.538845 11.600924 85.052071
v 36.538845 12.415184 85.052071
v 36.526222 11.600924 77.809967
v 36.526222 12.415184 77.809967
vt 0.741414 0.002679
vt 0.741414 0.246506
vt 0.504104 0.002679
vt 0.504104 0.246506
vt 0.399282 0.069803
vt 0.399282 0.117477
vt 0.255668 0.069803
vt 0.255668 0.117477
vt 0.492430 0.244949
vt 0.444253 0.245123
vt 0.491906 0.099821
vt 0.443729 0.099995
vt 0.396431 0.126836
vt 0.396431 0.174511
vt 0.252816 0.126836
vt 0.252816 0.174511
vt 0.235805 0.242860
vt 0.186684 0.242694
vt 0.236303 0.094892
vt 0.187183 0.094726
vt 0.137873 0.006798
vt 0.137873 0.048844
vt 0.011217 0.006798
vt 0.011217 0.048844
vt 0.148665 0.053778
vt 0.148665 0.099986
vt 0.009468 0.053778
vt 0.009468 0.099986
vt 0.153492 0.110157
vt 0.153492 0.158605
vt 0.007550 0.110157
vt 0.007550 0.158605
vt 0.400337 0.014319
vt 0.400337 0.061747
vt 0.257465 0.014319
vt 0.257465 0.061747
vt 0.018880 0.278278
vt 0.249213 0.278278
vt 0.018880 0.614979
vt 0.249213 0.614979
vt 0.300925 0.388613
vt 0.518920 0.388613
vt 0.300925 0.617017
vt 0.518920 0.617017
vt 0.794037 0.991336
vt 0.558575 0.991336
vt 0.794037 0.647137
vt 0.558575 0.647137
vt 0.009961 0.648603
vt 0.258938 0.648603
vt 0.009961 0.995971
vt 0.258938 0.995971
vt 0.284232 0.639862
vt 0.538047 0.639862
vt 0.284232 0.993979
vt 0.538047 0.993979
vt 0.143806 0.228457
vt 0.143806 0.243706
vt 0.008175 0.228457
vt 0.008175 0.243706
vt 0.143695 0.208905
vt 0.143695 0.223839
vt 0.010868 0.208905
vt 0.010868 0.223839
vt 0.379267 0.231072
vt 0.379267 0.244863
vt 0.256611 0.231072
vt 0.256611 0.244863
vt 0.380551 0.213330
vt 0.380551 0.227258
vt 0.256669 0.213330
vt 0.256669 0.227258
vt 0.376717 0.197130
vt 0.376717 0.210618
vt 0.256757 0.197130
vt 0.256757 0.210618
vt 0.140068 0.188915
vt 0.140068 0.203438
vt 0.010897 0.188915
vt 0.010897 0.203438
vt 0.144677 0.168900
vt 0.144677 0.184460
vt 0.006288 0.168900
vt 0.006288 0.184460
vt 0.376889 0.180323
vt 0.376889 0.193718
vt 0.257747 0.180323
vt 0.257747 0.193718
vn -0.000001 0.000000 -1.000000
vn -0.000001 0.000000 -1.000000
vn -0.000001 0.000000 -1.000000
vn 0.000000 0.000000 -1.000000
vn 0.000000 0.000000 -1.000000
vn 0.000000 0.000000 -1.000000
vn 0.000000 0.000000 -1.000000
vn 0.000000 0.000000 -1.000000
vn 0.000000 0.000000 -1.000000
vn -0.000000 0.000000 -1.000000
vn -0.000001 0.000000 -1.000000
vn -0.000001 0.000000 -1.000000
vn 0.000000 0.000000 -1.000000
vn 0.000000 0.000000 -1.000000
vn 0.000000 0.000000 -1.000000
vn 0.000000 0.000000 -1.000000
vn 0.000000 0.000000 -1.000000
vn 0.000000 0.000000 -1.000000
vn 0.000000 0.000000 -1.000000
vn 0.000000 0.000000 -1.000000
vn 0.000000 0.000000 -1.000000
vn 0.000000 0.000000 -1.000000
vn 0.000000 0.000000 -1.000000
vn 0.000000 0.000000 -1.000000
vn 0.000000 0.000000 -1.000000
vn 0.000000 0.000000 -1.000000
vn 0.000000 0.000000 -1.000000
vn 0.000000 0.000000 -1.000000
vn 0.000000 0.000000 -1.000000
vn 0.000000 0.000000 -1.000000
vn 0.000000 0.000000 -1.000000
vn 0.000000 0.000000 -1.000000
vn 0.000000 0.000000 -1.000000
vn 0.000000 0.000000 -1.000000
vn 0.000000 0.000000 -1.000000
vn 0.000000 0.000000 -1.000000
vn 0.000002 -0.116027 0.993246
vn -0.000206 -0.116121 0.993235
vn -0.000937 -0.116449 0.993196
vn -0.001846 -0.116857 0.993147
vn -0.001825 0.988554 -0.150855
vn -0.000762 0.988458 -0.151492
vn -0.000272 0.988414 -0.151786
vn 0.000000 0.988388 -0.151949
vn 0.000000 0.000000 -1.000000
vn -0.000000 0.000000 -1.000000
vn -0.000000 0.000000 -1.000000
vn -0.000001 0.000000 -1.000000
vn 0.989724 0.142992 0.000000
vn 0.993283 0.082708 0.080917
vn 0.991698 0.056478 0.115522
vn 0.982010 0.000000 0.188827
vn -1.000000 0.000000 0.000000
vn -0.993730 0.065135 0.090875
vn -0.988224 0.089142 0.124369
vn -0.976471 0.125630 0.175277
vn 0.981266 0.000000 0.192656
vn 0.981266 0.000000 0.192656
vn 0.981266 0.000000 0.192655
vn 0.981266 0.000000 0.192655
vn 0.981266 0.000000 0.192656
vn 0.981266 0.000000 0.192656
vn 0.981267 0.000000 0.192655
vn 0.981267 0.000000 0.192655
vn 0.981266 0.000000 0.192656
vn 0.981266 0.000000 0.192656
vn 0.981266 0.000000 0.192655
vn 0.981266 0.000000 0.192655
vn 0.981267 0.000000 0.192655
vn 0.981267 0.000000 0.192655
vn 0.981266 0.000000 0.192656
vn 0.981266 0.000000 0.192656
vn -0.984049 0.000000 0.177896
vn -0.984049 0.000000 0.177896
vn -0.984049 0.000000 0.177897
vn -0.984049 0.000000 0.177898
vn -0.999058 0.000000 0.043391
vn -0.999058 0.000000 0.043391
vn -0.999058 0.000000 0.043391
vn -0.999058 0.000000 0.043391
vn -0.999868 0.012190 -0.010738
vn -0.999875 0.011643 -0.010675
vn -0.999939 0.004969 -0.009896
vn -0.999942 0.004394 -0.009829
vn -0.999999 0.000000 0.001743
vn -0.999999 0.000000 0.001743
vn -0.999999 0.000000 0.001743
vn -0.999999 0.000000 0.001743
s 1
g textureBakeSet3 Building14_T2
usemtl baked_lambert6SG_Building14SG
f 1/1/1 2/2/2 3/3/3
f 3/3/3 2/2/2 4/4/4
s 2
f 5/5/5 6/6/6 7/7/7
f 7/7/7 6/6/6 8/8/8
s 3
f 9/9/9 10/10/10 11/11/11
f 11/11/11 10/10/10 12/12/12
s 4
f 13/13/13 14/14/14 15/15/15
f 15/15/15 14/14/14 16/16/16
s 5
f 17/17/17 18/18/18 19/19/19
f 19/19/19 18/18/18 20/20/20
s 6
f 21/21/21 22/22/22 23/23/23
f 23/23/23 22/22/22 24/24/24
s 7
f 25/25/25 26/26/26 27/27/27
f 27/27/27 26/26/26 28/28/28
s 8
f 29/29/29 30/30/30 31/31/31
f 31/31/31 30/30/30 32/32/32
s 9
f 33/33/33 34/34/34 35/35/35
f 35/35/35 34/34/34 36/36/36
s 10
f 37/37/37 38/38/38 39/39/39
f 39/39/39 38/38/38 40/40/40
s 11
f 39/41/41 40/42/42 41/43/43
f 41/43/43 40/42/42 42/44/44
s 12
f 41/45/45 42/46/46 43/47/47
f 43/47/47 42/46/46 44/48/48
s 13
f 38/49/49 44/50/50 40/51/51
f 40/51/51 44/50/50 42/52/52
s 14
f 43/53/53 37/54/54 41/55/55
f 41/55/55 37/54/54 39/56/56
s 15
f 45/57/57 46/58/58 47/59/59
f 47/59/59 46/58/58 48/60/60
s 16
f 49/61/61 50/62/62 51/63/63
f 51/63/63 50/62/62 52/64/64
s 17
f 53/65/65 54/66/66 55/67/67
f 55/67/67 54/66/66 56/68/68
s 18
f 57/69/69 58/70/70 59/71/71
f 59/71/71 58/70/70 60/72/72
s 19
f 61/73/73 62/74/74 63/75/75
f 63/75/75 62/74/74 64/76/76
s 20
f 65/77/77 66/78/78 67/79/79
f 67/79/79 66/78/78 68/80/80
s 21
f 69/81/81 70/82/82 71/83/83
f 71/83/83 70/82/82 72/84/84
s 22
f 73/85/85 74/86/86 75/87/87
f 75/87/87 74/86/86 76/88/88
