# This file uses centimeters as units for non-parametric coordinates.

mtllib Building3_T1.mtl
g default
v 161.917435 12.033673 55.576431
v 161.917435 17.561304 55.576431
v 161.917435 12.033673 67.183548
v 161.917435 17.561304 67.183548
v 128.207916 -0.119423 69.855324
v 161.577148 -0.119423 69.855362
v 128.207916 20.168268 73.573814
v 161.577148 20.168268 73.573860
v 128.207916 20.168268 40.679977
v 161.577148 20.168268 40.679977
v 128.207916 -0.119423 44.398476
v 161.577148 -0.119423 44.398476
v 161.657761 6.142684 55.771576
v 161.657761 7.426393 55.771576
v 161.657761 6.142684 67.378693
v 161.657761 7.426393 67.378693
v 161.647385 -0.058252 46.226593
v 161.647385 6.566416 46.226593
v 161.647385 -0.058252 51.759045
v 161.647385 6.566416 51.759045
v 128.061432 12.033675 58.273281
v 128.061432 17.561304 58.273281
v 128.061432 12.033675 46.666164
v 128.061432 17.561304 46.666164
v 128.061432 6.142684 58.273281
v 128.061432 7.426393 58.273281
v 128.061432 6.142684 46.666164
v 128.061432 7.426393 46.666164
v 128.125381 -0.058251 67.805687
v 128.125381 6.566416 67.805687
v 128.125381 -0.058251 62.273220
v 128.125381 6.566416 62.273220
vt 0.238065 0.136320
vt 0.238065 0.245016
vt 0.009822 0.136320
vt 0.009822 0.245016
vt 0.426093 0.297999
vt 0.968223 0.297999
vt 0.426093 0.627602
vt 0.968223 0.627602
vt 0.054856 0.262456
vt 0.189991 0.262456
vt 0.054856 0.365548
vt 0.189991 0.365548
vt 0.964504 0.977278
vt 0.422373 0.977278
vt 0.964504 0.647676
vt 0.422373 0.647676
vt 0.006064 0.687750
vt 0.385016 0.687750
vt 0.006064 0.989753
vt 0.385016 0.989753
vt 0.005996 0.374340
vt 0.391369 0.374340
vt 0.005996 0.681460
vt 0.391369 0.681460
vt 0.490801 0.211197
vt 0.490801 0.237082
vt 0.256750 0.211197
vt 0.256750 0.237082
vt 0.749269 0.001323
vt 0.749269 0.245566
vt 0.501773 0.001323
vt 0.501773 0.245566
vt 0.236754 0.016359
vt 0.236754 0.123030
vt 0.012762 0.016359
vt 0.012762 0.123030
vt 0.493425 0.163325
vt 0.493425 0.189507
vt 0.256694 0.163325
vt 0.256694 0.189507
vt 0.997222 0.000904
vt 0.997222 0.249813
vt 0.754100 0.000904
vt 0.754100 0.249813
vn 1.000000 0.000000 0.000000
vn 1.000000 0.000000 0.000000
vn 1.000000 0.000000 0.000000
vn 1.000000 0.000000 0.000000
vn -0.000001 -0.180285 0.983615
vn -0.000002 -0.180285 0.983615
vn -0.000001 -0.180285 0.983615
vn -0.000002 -0.180285 0.983614
vn 0.000000 1.000000 0.000000
vn 0.000000 1.000000 0.000000
vn 0.000000 1.000000 0.000000
vn 0.000000 1.000000 0.000000
vn 0.000000 -0.180285 -0.983614
vn 0.000000 -0.180285 -0.983615
vn 0.000000 -0.180285 -0.983615
vn 0.000000 -0.180285 -0.983615
vn 1.000000 0.000000 0.000000
vn 1.000000 -0.000001 0.000000
vn 1.000000 -0.000000 0.000000
vn 1.000000 -0.000001 0.000000
vn -1.000000 -0.000001 0.000000
vn -1.000000 0.000001 0.000000
vn -1.000000 0.000000 0.000000
vn -1.000000 0.000001 0.000000
vn 1.000000 0.000000 0.000000
vn 1.000000 0.000000 0.000000
vn 1.000000 0.000000 0.000000
vn 1.000000 0.000000 0.000000
vn 1.000000 0.000000 0.000000
vn 1.000000 0.000000 0.000000
vn 1.000000 0.000000 0.000000
vn 1.000000 0.000000 0.000000
vn -1.000000 0.000000 0.000000
vn -1.000000 0.000000 0.000000
vn -1.000000 0.000000 0.000000
vn -1.000000 0.000000 0.000000
vn -1.000000 0.000000 0.000000
vn -1.000000 0.000000 0.000000
vn -1.000000 0.000000 0.000000
vn -1.000000 0.000000 0.000000
vn -1.000000 0.000000 0.000000
vn -1.000000 0.000000 0.000000
vn -1.000000 0.000000 0.000000
vn -1.000000 0.000000 0.000000
s 1
g textureBakeSet9 Building3_T1
usemtl baked_lambert4SG_Building3_T1SG
f 1/1/1 2/2/2 3/3/3
f 3/3/3 2/2/2 4/4/4
s 2
f 5/5/5 6/6/6 7/7/7
f 7/7/7 6/6/6 8/8/8
s 3
f 7/9/9 8/10/10 9/11/11
f 9/11/11 8/10/10 10/12/12
s 4
f 9/13/13 10/14/14 11/15/15
f 11/15/15 10/14/14 12/16/16
s 5
f 6/17/17 12/18/18 8/19/19
f 8/19/19 12/18/18 10/20/20
s 6
f 11/21/21 5/22/22 9/23/23
f 9/23/23 5/22/22 7/24/24
s 7
f 13/25/25 14/26/26 15/27/27
f 15/27/27 14/26/26 16/28/28
s 8
f 17/29/29 18/30/30 19/31/31
f 19/31/31 18/30/30 20/32/32
s 9
f 21/33/33 22/34/34 23/35/35
f 23/35/35 22/34/34 24/36/36
s 10
f 25/37/37 26/38/38 27/39/39
f 27/39/39 26/38/38 28/40/40
s 11
f 29/41/41 30/42/42 31/43/43
f 31/43/43 30/42/42 32/44/44
