# This file uses centimeters as units for non-parametric coordinates.

mtllib Building6_T1.mtl
g default
v 133.759262 -1.439898 236.119461
v 159.336777 -1.439898 236.119461
v 133.759262 30.354382 236.119461
v 159.336777 30.354382 236.119461
v 133.759262 30.354382 209.139420
v 159.336777 30.354382 209.139420
v 133.759262 -1.439898 209.139420
v 159.336777 -1.439898 209.139420
v 133.628647 20.394249 230.936722
v 133.628647 25.944592 230.936722
v 133.628647 20.394249 213.061478
v 133.628647 25.944592 213.061478
v 142.275757 -0.046811 208.937302
v 142.275757 8.276783 208.937302
v 151.773209 -0.046811 208.937302
v 151.773209 8.276783 208.937302
v 159.561493 20.394251 213.555527
v 159.561493 25.944593 213.555527
v 159.561493 20.394251 231.430756
v 159.561493 25.944593 231.430756
v 146.548004 41.104904 222.629410
vt 0.365384 0.636199
vt 0.009652 0.267778
vt 0.698474 0.636199
vt 0.310542 0.267778
vt 0.767362 0.263449
vt 0.983549 0.263449
vt 0.680458 0.622468
vt 0.342473 0.622468
vt 0.009652 0.648077
vt 0.310542 0.648077
vt 0.365384 0.988787
vt 0.698474 0.988787
vt 0.001254 0.683846
vt 0.313019 0.683846
vt 0.001254 0.998008
vt 0.313019 0.998008
vt 0.767362 0.491490
vt 0.983549 0.491490
vt 0.680458 0.288519
vt 0.342473 0.288519
vt 0.236402 0.012526
vt 0.236402 0.241277
vt 0.009789 0.012526
vt 0.009789 0.241277
vt 0.734499 0.002886
vt 0.734499 0.246868
vt 0.503583 0.002886
vt 0.503583 0.246868
vt 0.492382 0.003999
vt 0.492382 0.242916
vt 0.258925 0.003999
vt 0.258925 0.242916
vt 0.875455 0.377470
vn 0.000000 0.000000 1.000000
vn 0.000000 0.000000 1.000000
vn 0.000000 0.000000 1.000000
vn 0.000000 0.000000 1.000000
vn 0.359864 0.865456 -0.348544
vn -0.000001 1.000000 -0.000001
vn 0.359864 0.865457 0.348543
vn 0.000000 0.000000 -1.000000
vn 0.000000 0.000000 -1.000000
vn 0.000000 0.000000 -1.000000
vn 0.000000 0.000000 -1.000000
vn 1.000000 0.000000 0.000000
vn 1.000000 0.000000 0.000000
vn 1.000000 0.000000 0.000000
vn 1.000000 0.000000 0.000000
vn -1.000000 0.000000 0.000000
vn -1.000000 0.000000 0.000000
vn -1.000000 0.000000 0.000000
vn -1.000000 0.000000 0.000000
vn -1.000000 0.000000 0.000000
vn -1.000000 0.000000 0.000000
vn -1.000000 0.000000 0.000000
vn -1.000000 0.000000 0.000000
vn 0.000000 0.000000 -1.000000
vn 0.000000 0.000000 -1.000000
vn 0.000000 0.000000 -1.000000
vn 0.000000 0.000000 -1.000000
vn 1.000000 0.000000 0.000000
vn 1.000000 0.000000 0.000000
vn 1.000000 0.000000 0.000000
vn 1.000000 0.000000 0.000000
vn -0.359866 0.865455 -0.348545
vn -0.359866 0.865456 0.348543
s 1
g textureBakeSet21 Building6_T1
usemtl baked_lambert4SG_Building6_T1SG
f 1/13/1 2/14/2 3/15/3
f 3/15/3 2/14/2 4/16/4
s 2
f 6/18/5 21/33/6 4/6/7
s 3
f 5/7/8 6/8/9 7/19/10
f 7/19/10 6/8/9 8/20/11
s 4
f 2/2/12 8/4/13 4/9/14
f 4/9/14 8/4/13 6/10/15
s 5
f 7/1/16 1/3/17 5/11/18
f 5/11/18 1/3/17 3/12/19
s 6
f 9/21/20 10/22/21 11/23/22
f 11/23/22 10/22/21 12/24/23
s 7
f 13/25/24 14/26/25 15/27/26
f 15/27/26 14/26/25 16/28/27
s 8
f 17/29/28 18/30/29 19/31/30
f 19/31/30 18/30/29 20/32/31
s 2
f 5/17/32 3/5/33 21/33/6
f 21/33/6 3/5/33 4/6/7
f 5/17/32 21/33/6 6/18/5
