# This file uses centimeters as units for non-parametric coordinates.

mtllib Building26_T2.mtl
g default
v 2.658787 16.926044 289.437805
v 45.840706 16.926044 289.437805
v 2.658787 19.053270 289.437805
v 45.840706 19.053270 289.437805
v 2.658787 19.053270 257.052490
v 45.840706 19.053270 257.052490
v 2.658787 16.926044 257.052490
v 45.840706 16.926044 257.052490
v 4.535397 19.053270 287.750305
v 7.787560 21.036566 285.301697
v 43.321754 19.053270 287.750305
v 40.069584 21.036566 285.301697
v 43.321754 19.053270 258.545105
v 40.069584 21.036566 260.993744
v 4.535397 19.053270 258.545105
v 7.787560 21.036566 260.993744
v 7.787560 21.036566 285.301697
v 11.259078 23.434978 282.687683
v 40.069584 21.036566 285.301697
v 36.598057 23.434978 282.687683
v 40.069584 21.036566 260.993744
v 36.598057 23.434978 263.607727
v 7.787560 21.036566 260.993744
v 11.259078 23.434978 263.607727
v 11.259078 23.434978 282.687683
v 13.875933 26.257900 280.717224
v 36.598057 23.434978 282.687683
v 33.981205 26.257900 280.717224
v 36.598057 23.434978 263.607727
v 33.981205 26.257900 265.578186
v 11.259078 23.434978 263.607727
v 13.875933 26.257900 265.578186
v 23.928572 31.392448 273.147614
v 41.450619 14.257011 275.745270
v 41.450619 15.691256 275.745270
v 41.450619 14.257011 283.214020
v 41.450619 15.691256 283.214020
v 41.450619 14.257013 262.184357
v 41.450619 15.691257 262.184357
v 41.450619 14.257013 269.653076
v 41.450619 15.691257 269.653076
v 41.445530 5.472132 262.353058
v 41.445530 6.906377 262.353058
v 41.445530 5.472132 269.821808
v 41.445530 6.906377 269.821808
v 31.129747 5.472133 259.599579
v 31.129747 6.906378 259.599579
v 38.598488 5.472133 259.599579
v 38.598488 6.906378 259.599579
v 31.071404 14.257013 259.599579
v 31.071404 15.691257 259.599579
v 38.540142 14.257013 259.599579
v 38.540142 15.691257 259.599579
v 20.183586 14.257013 259.599579
v 20.183586 15.691257 259.599579
v 27.652325 14.257014 259.599609
v 27.652325 15.691258 259.599609
v 20.293009 5.472133 259.599579
v 20.293009 6.906378 259.599579
v 27.761745 5.472133 259.599609
v 27.761745 6.906378 259.599609
v 9.336482 14.257013 259.599548
v 9.336482 15.691257 259.599548
v 16.805222 14.257014 259.599609
v 16.805222 15.691258 259.599609
v 9.336483 5.472133 259.599579
v 9.336483 6.906377 259.599579
v 16.805220 5.472132 259.599579
v 16.805220 6.906377 259.599579
v 41.482456 -0.179820 277.008118
v 41.482456 6.444848 277.008118
v 41.482456 -0.179820 282.540588
v 41.482456 6.444848 282.540588
v 7.065994 -0.521267 286.602234
v 41.379169 -0.521267 286.601929
v 7.065994 17.635864 286.602234
v 41.379169 17.635864 286.601929
v 7.065994 17.635864 259.692474
v 41.379169 17.635864 259.692078
v 7.065994 -0.521267 259.692474
v 41.379169 -0.521267 259.692078
vt 0.518607 0.259515
vt 0.657405 0.416411
vt 0.860962 0.355983
vt 0.851592 0.362260
vt 0.700340 0.355983
vt 0.707321 0.362260
vt 0.871328 0.346040
vt 0.994142 0.346040
vt 0.871328 0.468854
vt 0.994142 0.468854
vt 0.359259 0.416366
vt 0.359262 0.396783
vt 0.777831 0.259515
vt 0.777831 0.276542
vt 0.860962 0.476446
vt 0.375000 0.250000
vt 0.851592 0.470894
vt 0.625000 0.250000
vt 0.700340 0.476446
vt 0.625000 0.500000
vt 0.707321 0.470894
vt 0.375000 0.500000
vt 0.375000 0.250000
vt 0.375000 0.250000
vt 0.625000 0.250000
vt 0.625000 0.250000
vt 0.625000 0.500000
vt 0.625000 0.500000
vt 0.375000 0.500000
vt 0.375000 0.500000
vt 0.375000 0.250000
vt 0.518607 0.276542
vt 0.625000 0.250000
vt 0.657408 0.396827
vt 0.625000 0.500000
vt 0.641872 0.396824
vt 0.375000 0.500000
vt 0.530554 0.276542
vt 0.373003 0.396785
vt 0.430883 0.327456
vt 0.359868 0.363728
vt 0.288853 0.327456
vt 0.510124 0.276560
vt 0.205074 0.276560
vt 0.205074 0.261533
vt 0.510124 0.261533
vt 0.222869 0.276560
vt 0.496867 0.276560
vt 0.473893 0.290571
vt 0.245843 0.290571
vt 0.245843 0.290571
vt 0.473893 0.290571
vt 0.449369 0.307514
vt 0.270367 0.307514
vt 0.270367 0.307514
vt 0.449369 0.307514
vt 0.365656 0.435081
vt 0.104935 0.435777
vt 0.104900 0.422934
vt 0.365622 0.422237
vt 0.354292 0.422267
vt 0.120109 0.422893
vt 0.139713 0.410866
vt 0.334624 0.410345
vt 0.334624 0.410345
vt 0.139713 0.410866
vt 0.160635 0.396329
vt 0.313625 0.395920
vt 0.313625 0.395920
vt 0.160635 0.396329
vt 0.176389 0.379243
vt 0.297780 0.378918
vt 0.237001 0.348079
vt 0.764324 0.276542
vt 0.744724 0.292417
vt 0.550155 0.292417
vt 0.550155 0.292417
vt 0.744724 0.292417
vt 0.723800 0.311615
vt 0.571078 0.311615
vt 0.571078 0.311615
vt 0.723800 0.311615
vt 0.708028 0.334210
vt 0.586850 0.334210
vt 0.647439 0.375309
vt 0.395548 0.378529
vt 0.619333 0.378563
vt 0.619333 0.378563
vt 0.395548 0.378529
vt 0.419617 0.356453
vt 0.595271 0.356479
vt 0.595271 0.356479
vt 0.419617 0.356453
vt 0.437761 0.330467
vt 0.577134 0.330488
vt 0.507454 0.283208
vt 0.220331 0.203688
vt 0.220331 0.240824
vt 0.026950 0.203688
vt 0.026950 0.240824
vt 0.494586 0.198224
vt 0.494586 0.243713
vt 0.257702 0.198224
vt 0.257702 0.243713
vt 0.234813 0.148742
vt 0.234813 0.190693
vt 0.016357 0.148742
vt 0.016357 0.190693
vt 0.234894 0.101286
vt 0.234894 0.142007
vt 0.022840 0.101286
vt 0.022840 0.142007
vt 0.486566 0.148015
vt 0.486566 0.191460
vt 0.260331 0.148015
vt 0.260331 0.191460
vt 0.482698 0.100843
vt 0.482698 0.142450
vt 0.266029 0.100843
vt 0.266029 0.142450
vt 0.234993 0.049040
vt 0.234993 0.091273
vt 0.015067 0.049040
vt 0.015067 0.091273
vt 0.492690 0.049698
vt 0.492690 0.095188
vt 0.255806 0.049698
vt 0.255806 0.095188
vt 0.474909 0.006693
vt 0.474909 0.045948
vt 0.270490 0.006693
vt 0.270490 0.045948
vt 0.750107 0.003561
vt 0.750107 0.246471
vt 0.502523 0.003561
vt 0.502523 0.246471
vt 0.432490 0.749849
vt 0.883759 0.749849
vt 0.432490 0.988642
vt 0.883759 0.988642
vt 0.887129 0.738180
vt 0.431069 0.738180
vt 0.887129 0.496851
vt 0.431069 0.496851
vt 0.012244 0.722439
vt 0.410879 0.722439
vt 0.012244 0.991414
vt 0.410879 0.991414
vt 0.011163 0.440001
vt 0.415373 0.440001
vt 0.011163 0.712738
vt 0.415373 0.712738
vn 0.000000 0.000000 1.000000
vn 0.000000 0.000000 1.000000
vn 0.000000 0.000000 1.000000
vn 0.000000 0.000000 1.000000
vn -0.244045 0.921809 -0.301182
vn 0.000000 1.000000 -0.000003
vn 0.244045 0.921809 -0.301182
vn 0.000000 0.000000 -1.000000
vn 0.000000 0.000000 -1.000000
vn 0.000000 0.000000 -1.000000
vn 0.000000 0.000000 -1.000000
vn 0.000000 -1.000000 0.000000
vn 0.000000 -1.000000 0.000000
vn 0.000000 -1.000000 0.000000
vn 0.000000 -1.000000 0.000000
vn 1.000000 0.000000 0.000000
vn 1.000000 0.000000 0.000000
vn 1.000000 0.000000 0.000000
vn 1.000000 0.000000 0.000000
vn -1.000000 0.000000 0.000000
vn -1.000000 0.000000 0.000000
vn -1.000000 0.000000 0.000000
vn -1.000000 0.000000 0.000000
vn 0.000000 1.000000 0.000000
vn 0.000000 1.000000 0.000000
vn 0.000000 1.000000 0.000000
vn 0.000000 1.000000 0.000000
vn 0.000000 0.777076 0.629407
vn 0.000000 0.777076 0.629407
vn 0.000000 0.777076 0.629407
vn 0.000000 0.777076 0.629407
vn 0.000000 1.000000 0.000000
vn 0.000000 1.000000 0.000000
vn 0.000000 1.000000 0.000000
vn 0.000000 1.000000 0.000000
vn 0.520658 0.853765 0.000000
vn 0.520659 0.853765 0.000000
vn 0.520659 0.853765 0.000000
vn 0.520659 0.853765 0.000000
vn 0.000000 1.000000 0.000000
vn 0.000000 1.000000 0.000000
vn 0.000000 1.000000 0.000000
vn 0.000000 1.000000 0.000000
vn 0.000000 0.777080 -0.629402
vn 0.000000 0.777080 -0.629402
vn 0.000000 0.777080 -0.629402
vn 0.000000 0.777080 -0.629402
vn 0.000000 1.000000 0.000000
vn 0.000000 1.000000 0.000000
vn 0.000000 1.000000 0.000000
vn 0.000000 1.000000 0.000000
vn -0.520659 0.853765 0.000000
vn -0.520659 0.853765 0.000000
vn -0.520659 0.853765 0.000000
vn -0.520659 0.853765 0.000000
vn 0.000000 0.000000 0.000000
vn 0.000000 0.000000 0.000000
vn 0.000000 0.000000 0.000000
vn 0.000000 0.000000 0.000000
vn 0.000000 0.736841 0.676066
vn 0.000000 0.736840 0.676067
vn 0.000000 0.736840 0.676067
vn 0.000000 0.736840 0.676067
vn 0.000000 0.000000 0.000000
vn 0.000000 0.000000 0.000000
vn 0.000000 0.000000 0.000000
vn 0.000000 0.000000 0.000000
vn 0.568416 0.822741 0.000000
vn 0.568416 0.822741 0.000000
vn 0.568416 0.822741 0.000000
vn 0.568416 0.822741 0.000000
vn 0.000000 0.000000 0.000000
vn 0.000000 0.000000 0.000000
vn 0.000000 0.000000 0.000000
vn 0.000000 0.000000 0.000000
vn 0.000000 0.736837 -0.676071
vn 0.000000 0.736836 -0.676071
vn 0.000000 0.736836 -0.676071
vn 0.000000 0.736836 -0.676072
vn 0.000000 0.000000 0.000000
vn 0.000000 0.000000 0.000000
vn 0.000000 0.000000 0.000000
vn 0.000000 0.000000 0.000000
vn -0.568417 0.822740 0.000000
vn -0.568417 0.822740 0.000000
vn -0.568417 0.822740 0.000000
vn -0.568417 0.822740 0.000000
vn 0.000000 0.000000 0.000000
vn 0.000000 0.000000 0.000000
vn 0.000000 0.000000 0.000000
vn 0.000000 0.000000 0.000000
vn 0.000000 0.572373 0.819994
vn 0.000000 0.572373 0.819993
vn 0.000000 0.572373 0.819993
vn 0.000000 0.572373 0.819993
vn 0.000000 0.000000 0.000000
vn 0.000000 0.000000 0.000000
vn 0.000000 0.000000 0.000000
vn 0.000000 0.000000 0.000000
vn 0.733368 0.679832 0.000000
vn 0.733367 0.679833 0.000000
vn 0.733367 0.679833 0.000000
vn 0.733367 0.679833 0.000000
vn 0.000000 0.000000 0.000000
vn 0.000000 0.000000 0.000000
vn 0.000000 0.000000 0.000000
vn 0.000000 0.000000 0.000000
vn 0.000000 0.572373 -0.819993
vn 0.000000 0.572373 -0.819994
vn 0.000000 0.572373 -0.819994
vn 0.000000 0.572372 -0.819994
vn 0.000000 0.000000 0.000000
vn 0.000000 0.000000 0.000000
vn 0.000000 0.000000 0.000000
vn 0.000000 0.000000 0.000000
vn -0.733367 0.679833 0.000000
vn -0.733367 0.679833 0.000000
vn -0.733367 0.679833 0.000000
vn -0.733367 0.679833 0.000000
vn -0.244045 0.921811 0.301177
vn 0.244045 0.921811 0.301177
vn 1.000000 0.000000 0.000000
vn 1.000000 0.000000 0.000000
vn 1.000000 0.000000 0.000000
vn 1.000000 0.000000 0.000000
vn 1.000000 0.000000 0.000000
vn 1.000000 0.000000 0.000000
vn 1.000000 0.000000 0.000000
vn 1.000000 0.000000 0.000000
vn 1.000000 0.000000 0.000000
vn 1.000000 0.000000 0.000000
vn 1.000000 0.000000 0.000000
vn 1.000000 0.000000 0.000000
vn 0.000000 0.000000 -1.000000
vn 0.000000 0.000000 -1.000000
vn 0.000000 0.000000 -1.000000
vn 0.000000 0.000000 -1.000000
vn 0.000000 0.000000 -1.000000
vn 0.000000 0.000000 -1.000000
vn 0.000000 0.000000 -1.000000
vn 0.000000 0.000000 -1.000000
vn 0.000006 0.000000 -1.000000
vn 0.000003 0.000000 -1.000000
vn 0.000003 0.000000 -1.000000
vn 0.000000 0.000000 -1.000000
vn 0.000006 0.000000 -1.000000
vn 0.000003 0.000000 -1.000000
vn 0.000003 0.000000 -1.000000
vn 0.000000 0.000000 -1.000000
vn 0.000006 0.000000 -1.000000
vn 0.000009 0.000000 -1.000000
vn 0.000009 0.000000 -1.000000
vn 0.000011 0.000000 -1.000000
vn -0.000001 0.000000 -1.000000
vn -0.000000 0.000000 -1.000000
vn -0.000000 0.000000 -1.000000
vn 0.000000 0.000000 -1.000000
vn 1.000000 0.000000 0.000000
vn 1.000000 0.000000 0.000000
vn 1.000000 0.000000 0.000000
vn 1.000000 0.000000 0.000000
vn 0.000009 0.000000 1.000000
vn 0.000009 0.000000 1.000000
vn 0.000009 0.000000 1.000000
vn 0.000009 0.000000 1.000000
vn -0.000013 0.000000 -1.000000
vn -0.000012 0.000000 -1.000000
vn -0.000012 0.000000 -1.000000
vn -0.000011 0.000000 -1.000000
vn 1.000000 0.000000 0.000000
vn 1.000000 0.000000 0.000000
vn 1.000000 0.000000 0.000000
vn 1.000000 0.000000 0.000000
vn -1.000000 0.000000 0.000000
vn -1.000000 0.000000 0.000000
vn -1.000000 0.000000 0.000000
vn -1.000000 0.000000 0.000000
s 1
g textureBakeSet28 Building26_T2
usemtl baked_lambert6SG_Building26_T2SG
f 1/57/1 2/58/2 3/60/3
f 3/60/3 2/58/2 4/59/4
s 2
f 32/40/5 33/41/6 30/42/7
s 3
f 5/43/8 6/44/9 7/46/10
f 7/46/10 6/44/9 8/45/11
s 4
f 7/7/12 8/8/13 1/9/14
f 1/9/14 8/8/13 2/10/15
s 5
f 2/2/16 8/11/17 4/34/18
f 4/34/18 8/11/17 6/12/19
s 6
f 7/1/20 1/13/21 5/32/22
f 5/32/22 1/13/21 3/14/23
s 7
f 4/3/24 11/4/25 3/5/26
f 3/5/26 11/4/25 9/6/27
s 8
f 9/61/28 11/62/29 10/64/30
f 10/64/30 11/62/29 12/63/31
s 9
f 4/3/32 6/15/33 11/4/34
f 11/4/34 6/15/33 13/17/35
s 10
f 11/36/36 13/39/37 12/87/38
f 12/87/38 13/39/37 14/86/39
s 11
f 6/15/40 5/19/41 13/17/42
f 13/17/42 5/19/41 15/21/43
s 12
f 13/47/44 15/48/45 14/50/46
f 14/50/46 15/48/45 16/49/47
s 13
f 3/5/48 9/6/49 5/19/50
f 5/19/50 9/6/49 15/21/51
s 14
f 15/38/52 9/74/53 16/76/54
f 16/76/54 9/74/53 10/75/55
s 15
f 17/23/56 10/16/57 19/25/58
f 10/16/57 12/18/59 19/25/58
s 16
f 17/65/60 19/66/61 18/68/62
f 18/68/62 19/66/61 20/67/63
s 17
f 19/25/64 12/18/65 21/27/66
f 12/18/65 14/20/67 21/27/66
s 18
f 19/88/68 21/89/69 20/91/70
f 20/91/70 21/89/69 22/90/71
s 19
f 21/27/72 14/20/73 23/29/74
f 14/20/73 16/22/75 23/29/74
s 20
f 21/51/76 23/52/77 22/54/78
f 22/54/78 23/52/77 24/53/79
s 21
f 23/29/80 16/22/81 17/23/82
f 16/22/81 10/16/83 17/23/82
s 22
f 23/77/84 17/78/85 24/80/86
f 24/80/86 17/78/85 18/79/87
s 23
f 25/31/88 18/24/89 27/33/90
f 18/24/89 20/26/91 27/33/90
s 24
f 25/69/92 27/70/93 26/72/94
f 26/72/94 27/70/93 28/71/95
s 25
f 27/33/96 20/26/97 29/35/98
f 20/26/97 22/28/99 29/35/98
s 26
f 27/92/100 29/93/101 28/95/102
f 28/95/102 29/93/101 30/94/103
s 27
f 29/35/104 22/28/105 31/37/106
f 22/28/105 24/30/107 31/37/106
s 28
f 29/55/108 31/56/109 30/42/110
f 30/42/110 31/56/109 32/40/111
s 29
f 31/37/112 24/30/113 25/31/114
f 24/30/113 18/24/115 25/31/114
s 30
f 31/81/116 25/82/117 32/84/118
f 32/84/118 25/82/117 26/83/119
s 2
f 26/72/120 28/71/121 33/73/6
f 33/96/6 28/95/121 30/94/7
f 26/83/120 33/85/6 32/84/5
s 31
f 34/97/122 35/98/123 36/99/124
f 36/99/124 35/98/123 37/100/125
s 32
f 38/101/126 39/102/127 40/103/128
f 40/103/128 39/102/127 41/104/129
s 33
f 42/105/130 43/106/131 44/107/132
f 44/107/132 43/106/131 45/108/133
s 34
f 46/109/134 47/110/135 48/111/136
f 48/111/136 47/110/135 49/112/137
s 35
f 50/113/138 51/114/139 52/115/140
f 52/115/140 51/114/139 53/116/141
s 36
f 54/117/142 55/118/143 56/119/144
f 56/119/144 55/118/143 57/120/145
s 37
f 58/121/146 59/122/147 60/123/148
f 60/123/148 59/122/147 61/124/149
s 38
f 62/125/150 63/126/151 64/127/152
f 64/127/152 63/126/151 65/128/153
s 39
f 66/129/154 67/130/155 68/131/156
f 68/131/156 67/130/155 69/132/157
s 40
f 70/133/158 71/134/159 72/135/160
f 72/135/160 71/134/159 73/136/161
s 41
f 74/137/162 75/138/163 76/139/164
f 76/139/164 75/138/163 77/140/165
s 42
f 78/141/166 79/142/167 80/143/168
f 80/143/168 79/142/167 81/144/169
s 43
f 75/145/170 81/146/171 77/147/172
f 77/147/172 81/146/171 79/148/173
s 44
f 80/149/174 74/150/175 78/151/176
f 78/151/176 74/150/175 76/152/177
