# This file uses centimeters as units for non-parametric coordinates.

mtllib Building22_T3.mtl
g default
v 80.717064 10.530300 230.555954
v 80.717064 13.435760 230.555954
v 80.717064 10.530300 215.793106
v 80.717064 13.435760 215.793106
v 80.717064 2.372063 230.555954
v 80.717064 5.277524 230.555954
v 80.717064 2.372063 215.793106
v 80.717064 5.277524 215.793106
v 103.668282 10.530303 215.793137
v 103.668282 13.435763 215.793137
v 103.668282 10.530303 230.555969
v 103.668282 13.435763 230.555969
v 103.606728 -0.295370 220.201874
v 103.606728 6.329299 220.201874
v 103.606728 -0.295370 225.734344
v 103.606728 6.329299 225.734344
v 80.911148 -0.560790 235.758270
v 103.538742 -0.560790 235.758270
v 80.911148 15.715141 235.758270
v 103.538742 15.715141 235.758270
v 80.911148 15.715141 210.372864
v 103.538742 15.715141 210.372864
v 80.911148 -0.560790 210.372864
v 103.538742 -0.560790 210.372864
vt 0.238764 0.192656
vt 0.238764 0.237829
vt 0.009241 0.192656
vt 0.009241 0.237829
vt 0.241277 0.026487
vt 0.241277 0.071925
vt 0.010405 0.026487
vt 0.010405 0.071925
vt 0.486376 0.199570
vt 0.486376 0.243900
vt 0.261131 0.199570
vt 0.261131 0.243900
vt 0.741795 0.003556
vt 0.741795 0.247017
vt 0.502218 0.003556
vt 0.502218 0.247017
vt 0.018268 0.722920
vt 0.376864 0.722920
vt 0.018268 0.980856
vt 0.376864 0.980856
vt 0.812735 0.772198
vt 0.978537 0.772198
vt 0.812735 0.958208
vt 0.978537 0.958208
vt 0.388857 0.690553
vt 0.017687 0.690553
vt 0.388857 0.423572
vt 0.017687 0.423572
vt 0.395368 0.726265
vt 0.787234 0.726265
vt 0.395368 0.977511
vt 0.787234 0.977511
vt 0.400318 0.431638
vt 0.797500 0.431638
vt 0.400318 0.686292
vt 0.797500 0.686292
vn -1.000000 0.000000 0.000000
vn -1.000000 0.000000 0.000000
vn -1.000000 0.000000 0.000000
vn -1.000000 0.000000 0.000000
vn -1.000000 0.000000 0.000000
vn -1.000000 0.000000 0.000000
vn -1.000000 0.000000 0.000000
vn -1.000000 0.000000 0.000000
vn 1.000000 0.000000 0.000000
vn 1.000000 0.000000 0.000000
vn 1.000000 0.000000 0.000000
vn 1.000000 0.000000 0.000000
vn 1.000000 0.000000 0.000000
vn 1.000000 0.000000 0.000000
vn 1.000000 0.000000 0.000000
vn 1.000000 0.000000 0.000000
vn 0.000000 0.000000 1.000000
vn 0.000000 0.000000 1.000000
vn 0.000000 0.000000 1.000000
vn 0.000000 0.000000 1.000000
vn 0.000000 1.000000 0.000000
vn 0.000000 1.000000 0.000000
vn 0.000000 1.000000 0.000000
vn 0.000000 1.000000 0.000000
vn 0.000000 0.000000 -1.000000
vn 0.000000 0.000000 -1.000000
vn 0.000000 0.000000 -1.000000
vn 0.000000 0.000000 -1.000000
vn 1.000000 0.000000 0.000000
vn 1.000000 0.000000 0.000000
vn 1.000000 0.000000 0.000000
vn 1.000000 0.000000 0.000000
vn -1.000000 0.000000 0.000000
vn -1.000000 0.000000 0.000000
vn -1.000000 0.000000 0.000000
vn -1.000000 0.000000 0.000000
s 1
g textureBakeSet22 Building22_T3
usemtl baked_lambert7SG_Building22_T3SG
f 1/1/1 2/2/2 3/3/3
f 3/3/3 2/2/2 4/4/4
s 2
f 5/5/5 6/6/6 7/7/7
f 7/7/7 6/6/6 8/8/8
s 3
f 9/9/9 10/10/10 11/11/11
f 11/11/11 10/10/10 12/12/12
s 4
f 13/13/13 14/14/14 15/15/15
f 15/15/15 14/14/14 16/16/16
s 5
f 17/17/17 18/18/18 19/19/19
f 19/19/19 18/18/18 20/20/20
s 6
f 19/21/21 20/22/22 21/23/23
f 21/23/23 20/22/22 22/24/24
s 7
f 21/25/25 22/26/26 23/27/27
f 23/27/27 22/26/26 24/28/28
s 8
f 18/29/29 24/30/30 20/31/31
f 20/31/31 24/30/30 22/32/32
s 9
f 23/33/33 17/34/34 21/35/35
f 21/35/35 17/34/34 19/36/36
