# This file uses centimeters as units for non-parametric coordinates.

mtllib Red_Light_Ground.mtl
g default
v 112.953577 0.088284 151.152342
v 169.466310 0.088284 151.152342
v 112.953577 0.088284 75.581099
v 169.466310 0.088284 75.581099
v 169.441881 0.088284 151.152342
v 225.954622 0.088284 151.152342
v 169.441881 0.088284 75.581099
v 225.954622 0.088284 75.581099
v 169.451677 0.088284 75.636320
v 225.964403 0.088284 75.636320
v 169.451677 0.088284 0.065085
v 225.964403 0.088284 0.065085
v 112.954828 0.088284 75.636320
v 169.467562 0.088284 75.636320
v 112.954828 0.088284 0.065085
v 169.467562 0.088284 0.065085
vt 0.045781 0.038156
vt 0.500059 0.038156
vt 0.045781 0.500169
vt 0.500059 0.500169
vt 0.499863 0.038156
vt 0.954140 0.038156
vt 0.499863 0.500169
vt 0.954140 0.500169
vt 0.499941 0.499831
vt 0.954219 0.499831
vt 0.499941 0.961844
vt 0.954219 0.961844
vt 0.045791 0.499831
vt 0.500069 0.499831
vt 0.045791 0.961844
vt 0.500069 0.961844
vn 0.000000 1.000000 0.000000
vn 0.000000 1.000000 0.000000
vn 0.000000 1.000000 0.000000
vn 0.000000 1.000000 0.000000
vn 0.000000 1.000000 0.000000
vn 0.000000 1.000000 0.000000
vn 0.000000 1.000000 0.000000
vn 0.000000 1.000000 0.000000
vn 0.000000 1.000000 0.000000
vn 0.000000 1.000000 0.000000
vn 0.000000 1.000000 0.000000
vn 0.000000 1.000000 0.000000
vn 0.000000 1.000000 0.000000
vn 0.000000 1.000000 0.000000
vn 0.000000 1.000000 0.000000
vn 0.000000 1.000000 0.000000
s 1
g textureBakeSet1 ground1
usemtl baked_blinn6SG_ground1SG
f 1/1/1 2/2/2 3/3/3
f 3/3/3 2/2/2 4/4/4
s 2
f 5/5/5 6/6/6 7/7/7
f 7/7/7 6/6/6 8/8/8
s 3
f 9/9/9 10/10/10 11/11/11
f 11/11/11 10/10/10 12/12/12
s 4
f 13/13/13 14/14/14 15/15/15
f 15/15/15 14/14/14 16/16/16
