# This file uses centimeters as units for non-parametric coordinates.

mtllib Red_Light_Ground1.mtl
g default
v 56.441991 0.088284 75.577811
v 112.954724 0.088284 75.577811
v 56.441991 0.088284 0.006575
v 112.954724 0.088284 0.006575
v 0.003951 0.088284 75.577811
v 56.516683 0.088284 75.577811
v 0.003951 0.088284 0.006575
v 56.516683 0.088284 0.006575
v 0.002446 0.088284 151.151953
v 56.515180 0.088284 151.151953
v 0.002446 0.088284 75.580710
v 56.515180 0.088284 75.580710
v 56.441991 0.088284 151.151953
v 112.954724 0.088284 151.151953
v 56.441991 0.088284 75.580710
v 112.954724 0.088284 75.580710
vt 0.499712 0.500009
vt 0.943889 0.500009
vt 0.499712 0.949126
vt 0.943889 0.949126
vt 0.056123 0.500009
vt 0.500300 0.500009
vt 0.056123 0.949126
vt 0.500300 0.949126
vt 0.056111 0.050874
vt 0.500288 0.050874
vt 0.056111 0.499991
vt 0.500288 0.499991
vt 0.499712 0.050874
vt 0.943889 0.050874
vt 0.499712 0.499991
vt 0.943889 0.499991
vn 0.000000 1.000000 0.000000
vn 0.000000 1.000000 0.000000
vn 0.000000 1.000000 0.000000
vn 0.000000 1.000000 0.000000
vn 0.000000 1.000000 0.000000
vn 0.000000 1.000000 0.000000
vn 0.000000 1.000000 0.000000
vn 0.000000 1.000000 0.000000
vn 0.000000 1.000000 0.000000
vn 0.000000 1.000000 0.000000
vn 0.000000 1.000000 0.000000
vn 0.000000 1.000000 0.000000
vn 0.000000 1.000000 0.000000
vn 0.000000 1.000000 0.000000
vn 0.000000 1.000000 0.000000
vn 0.000000 1.000000 0.000000
s 1
g Ground16 ground2
usemtl baked_blinn6SG_ground2SG
f 1/1/1 2/2/2 3/3/3
f 3/3/3 2/2/2 4/4/4
s 2
f 5/5/5 6/6/6 7/7/7
f 7/7/7 6/6/6 8/8/8
s 3
f 9/9/9 10/10/10 11/11/11
f 11/11/11 10/10/10 12/12/12
s 4
f 13/13/13 14/14/14 15/15/15
f 15/15/15 14/14/14 16/16/16
