# This file uses centimeters as units for non-parametric coordinates.

mtllib Red_Light_Ground2.mtl
g default
v 112.809207 0.088284 226.703285
v 169.321940 0.088284 226.703285
v 112.809207 0.088284 151.132057
v 169.321940 0.088284 151.132057
v 169.296534 0.088284 226.703285
v 225.809260 0.088284 226.703285
v 169.296534 0.088284 151.132057
v 225.809260 0.088284 151.132057
v 169.233882 0.088284 302.213020
v 225.746623 0.088284 302.213020
v 169.233882 0.088284 226.641792
v 225.746623 0.088284 226.641792
v 112.925296 0.088284 302.213020
v 169.438029 0.088284 302.213020
v 112.925296 0.088284 226.641792
v 169.438029 0.088284 226.641792
vt 0.038959 0.499814
vt 0.500104 0.499814
vt 0.038959 0.957605
vt 0.500104 0.957605
vt 0.499897 0.499814
vt 0.961041 0.499814
vt 0.499897 0.957605
vt 0.961041 0.957605
vt 0.499385 0.042396
vt 0.960530 0.042396
vt 0.499385 0.500187
vt 0.960530 0.500187
vt 0.039907 0.042396
vt 0.501051 0.042396
vt 0.039907 0.500187
vt 0.501051 0.500187
vn 0.000000 1.000000 0.000000
vn 0.000000 1.000000 0.000000
vn 0.000000 1.000000 0.000000
vn 0.000000 1.000000 0.000000
vn 0.000000 1.000000 0.000000
vn 0.000000 1.000000 0.000000
vn 0.000000 1.000000 0.000000
vn 0.000000 1.000000 0.000000
vn 0.000000 1.000000 0.000000
vn 0.000000 1.000000 0.000000
vn 0.000000 1.000000 0.000000
vn 0.000000 1.000000 0.000000
vn 0.000000 1.000000 0.000000
vn 0.000000 1.000000 0.000000
vn 0.000000 1.000000 0.000000
vn 0.000000 1.000000 0.000000
s 1
g Ground17 ground4
usemtl baked_blinn6SG_ground4SG
f 1/1/1 2/2/2 3/3/3
f 3/3/3 2/2/2 4/4/4
s 2
f 5/5/5 6/6/6 7/7/7
f 7/7/7 6/6/6 8/8/8
s 3
f 9/9/9 10/10/10 11/11/11
f 11/11/11 10/10/10 12/12/12
s 4
f 13/13/13 14/14/14 15/15/15
f 15/15/15 14/14/14 16/16/16
