# This file uses centimeters as units for non-parametric coordinates.

mtllib Walls.mtl
g default
v 6.655159 -0.173318 286.420349
v 215.764847 -0.173318 286.420349
v 6.655159 10.657673 288.380188
v 6.655159 5.242177 286.420349
v 6.655159 10.657673 286.420349
v 215.995148 10.657673 288.380188
v 215.764847 5.242177 286.420349
v 215.764847 10.657673 286.420349
v 7.462948 -0.469053 6.890182
v 7.462948 -0.469053 291.042511
v 7.462948 4.946442 291.042511
v 7.462948 10.361938 291.042511
v 5.503121 10.361938 291.042511
v 7.462948 4.946442 6.890182
v 7.462948 10.361938 6.890182
v 5.503121 10.361938 7.202774
v 215.670105 -0.196872 291.207214
v 215.670105 -0.196872 8.435867
v 217.629929 10.634119 291.207214
v 215.670105 5.218623 291.207214
v 215.670105 10.634119 291.207214
v 217.629929 10.634119 8.124374
v 215.670105 5.218623 8.435867
v 215.670105 10.634119 8.435867
v 215.170212 -0.366342 10.331404
v 7.477409 -0.366342 10.331404
v 7.477409 5.049154 10.331404
v 7.477409 10.464650 10.331404
v 7.477409 10.464650 8.371565
v 215.170212 5.049154 10.331404
v 215.170212 10.464650 10.331404
v 214.941742 10.464650 8.371565
vt 0.181014 0.858942
vt 0.181014 0.838070
vt 0.941817 0.858942
vt 0.942655 0.838070
vt 0.965663 0.795200
vt -0.004637 0.791263
vt 0.967978 0.752129
vt -0.002322 0.748192
vt 0.970292 0.709058
vt -0.000007 0.705122
vt 0.853980 0.045887
vt 0.854034 0.053727
vt 0.083291 0.042550
vt 0.082497 0.050387
vt -0.001116 0.112949
vt 0.998884 0.112949
vt -0.001116 0.128937
vt 0.998884 0.128937
vt -0.001116 0.144925
vt 0.998884 0.144925
vt 0.944419 0.559022
vt 0.944465 0.572552
vt 0.034676 0.560084
vt 0.033720 0.573615
vt 0.013983 0.483824
vt 0.980067 0.483824
vt 0.013983 0.502975
vt 0.980067 0.502975
vt 0.013983 0.522127
vt 0.980067 0.522127
vt 0.927757 0.292162
vt 0.978175 0.300561
vt 0.651875 0.291195
vt 0.172710 0.299035
vt -0.001639 0.218259
vt 0.998361 0.218259
vt -0.001639 0.244334
vt 0.998361 0.244334
vt -0.001639 0.270408
vt 0.998361 0.270408
vn 0.000000 1.000000 0.000000
vn 0.000000 1.000000 -0.000000
vn 0.000000 1.000000 -0.000000
vn 0.000000 1.000000 -0.000001
vn 0.000000 0.000000 -1.000000
vn 0.000000 0.000000 -1.000000
vn 0.000000 0.000000 -1.000000
vn 0.000000 0.000000 -1.000000
vn 0.000000 0.000000 -1.000000
vn 0.000000 0.000000 -1.000000
vn 0.000000 1.000000 0.000000
vn 0.000000 1.000000 0.000000
vn 0.000000 1.000000 0.000000
vn 0.000000 1.000000 0.000000
vn 1.000000 0.000000 0.000000
vn 1.000000 0.000000 0.000000
vn 1.000000 0.000000 0.000000
vn 1.000000 0.000000 0.000000
vn 1.000000 0.000000 0.000000
vn 1.000000 0.000000 0.000000
vn 0.000000 1.000000 0.000000
vn 0.000000 1.000000 0.000000
vn 0.000000 1.000000 0.000000
vn 0.000000 1.000000 0.000000
vn -1.000000 0.000000 0.000000
vn -1.000000 0.000000 0.000000
vn -1.000000 0.000000 0.000000
vn -1.000000 0.000000 0.000000
vn -1.000000 0.000000 0.000000
vn -1.000000 0.000000 0.000000
vn 0.000000 1.000000 0.000000
vn 0.000000 1.000000 -0.000001
vn 0.000000 1.000000 -0.000001
vn 0.000000 1.000000 -0.000001
vn 0.000000 0.000000 1.000000
vn 0.000000 0.000000 1.000000
vn 0.000000 0.000000 1.000000
vn 0.000000 0.000000 1.000000
vn 0.000000 0.000000 1.000000
vn 0.000000 0.000000 1.000000
s 1
g textureBakeSet29 Red_Light_Walls
usemtl baked_lambert5SG_Red_Light_WallsSG
f 5/1/1 3/2/2 8/3/3
f 8/3/3 3/2/2 6/4/4
s 2
f 2/5/5 1/6/6 7/7/7
f 7/7/7 1/6/6 4/8/8
f 7/7/7 4/8/8 8/9/9
f 8/9/9 4/8/8 5/10/10
s 3
f 13/11/11 12/12/12 16/13/13
f 16/13/13 12/12/12 15/14/14
s 4
f 10/15/15 9/16/16 11/17/17
f 11/17/17 9/16/16 14/18/18
f 11/17/17 14/18/18 12/19/19
f 12/19/19 14/18/18 15/20/20
s 5
f 21/21/21 19/22/22 24/23/23
f 24/23/23 19/22/22 22/24/24
s 6
f 18/25/25 17/26/26 23/27/27
f 23/27/27 17/26/26 20/28/28
f 23/27/27 20/28/28 24/29/29
f 24/29/29 20/28/28 21/30/30
s 7
f 29/31/31 28/32/32 32/33/33
f 32/33/33 28/32/32 31/34/34
s 8
f 26/35/35 25/36/36 27/37/37
f 27/37/37 25/36/36 30/38/38
f 27/37/37 30/38/38 28/39/39
f 28/39/39 30/38/38 31/40/40
