# This file uses centimeters as units for non-parametric coordinates.

mtllib Grim_Bar_MainTV.mtl
g default
v 59.453773 13.553942 73.569511
v 59.453773 13.553942 57.827869
v 60.177132 7.375756 73.569511
v 60.177132 7.375756 57.827869
v 60.411407 7.499546 73.569511
v 60.411407 7.499546 57.827869
v 59.688057 13.677734 73.569511
v 59.688057 13.677734 57.827869
v 59.986504 10.160810 65.589012
v 61.621140 10.160810 65.589012
v 59.986504 10.461301 65.589012
v 61.621140 10.461301 65.589012
v 59.986504 10.461301 64.597832
v 61.621140 10.461301 64.597832
v 59.986504 10.160810 64.597832
v 61.621140 10.160810 64.597832
vt 0.993402 0.966431
vt 0.018840 0.966431
vt 0.018840 0.096891
vt 0.993402 0.096891
vt 0.000575 0.999002
vt 0.000575 0.000998
vt 0.016883 0.000998
vt 0.016883 0.999002
vt 0.691874 0.048952
vt 0.691874 0.001040
vt 0.737992 0.001040
vt 0.737992 0.048952
vt 0.438984 0.002831
vt 0.439805 0.002628
vt 0.437286 0.022322
vt 0.436465 0.022525
vt 0.440047 0.002628
vt 0.440868 0.002831
vt 0.443388 0.022525
vt 0.442567 0.022322
vt 0.436211 0.002628
vt 0.436211 0.052872
vt 0.435390 0.052872
vt 0.435390 0.002628
vt 0.479641 0.010361
vt 0.460696 0.010361
vt 0.479641 0.029307
vt 0.460696 0.029307
vt 0.032705 0.053774
vt 0.032705 0.009557
vt 0.040833 0.009557
vt 0.040833 0.053774
vt 0.180497 0.039455
vt 0.180497 0.014359
vt 0.195715 0.014359
vt 0.195715 0.039455
vt 0.513827 0.041144
vt 0.513827 0.009675
vt 0.519612 0.009675
vt 0.519612 0.041144
vt 0.622483 0.069476
vt 0.622483 -0.003712
vt 0.644671 -0.003712
vt 0.644671 0.069476
vt 0.966705 0.067776
vt 0.966705 0.013911
vt 0.983034 0.013911
vt 0.983034 0.067776
vn -0.993216 -0.116288 0.000000
vn -0.993216 -0.116288 0.000000
vn -0.993216 -0.116288 0.000000
vn -0.993216 -0.116288 0.000000
vn 0.467188 -0.884158 0.000000
vn 0.467188 -0.884158 0.000000
vn 0.467188 -0.884158 0.000000
vn 0.467188 -0.884158 0.000000
vn 0.993216 0.116287 0.000000
vn 0.993216 0.116287 0.000000
vn 0.993216 0.116287 0.000000
vn 0.993216 0.116287 0.000000
vn -0.000006 0.000000 -1.000000
vn -0.000000 0.000000 -1.000000
vn -0.000005 0.000000 -1.000000
vn 0.000000 0.000000 -1.000000
vn 0.000000 0.000000 1.000000
vn -0.000000 0.000000 1.000000
vn -0.000015 0.000000 1.000000
vn -0.000015 0.000000 1.000000
vn -0.467183 0.884161 0.000000
vn -0.467183 0.884161 0.000000
vn -0.467182 0.884161 0.000000
vn -0.467183 0.884161 0.000000
vn 0.000000 0.000000 1.000000
vn 0.000000 0.000000 1.000000
vn 0.000000 0.000000 1.000000
vn 0.000000 0.000000 1.000000
vn 0.000000 1.000000 0.000000
vn 0.000000 1.000000 0.000000
vn 0.000000 1.000000 0.000000
vn 0.000000 1.000000 0.000000
vn 0.000000 0.000000 -1.000000
vn 0.000000 0.000000 -1.000000
vn 0.000000 0.000000 -1.000000
vn 0.000000 0.000000 -1.000000
vn 0.000000 -1.000000 0.000000
vn 0.000000 -1.000000 0.000000
vn 0.000000 -1.000000 0.000000
vn 0.000000 -1.000000 0.000000
vn 1.000000 0.000000 0.000000
vn 1.000000 0.000000 0.000000
vn 1.000000 0.000000 0.000000
vn 1.000000 0.000000 0.000000
vn -1.000000 0.000000 0.000000
vn -1.000000 0.000000 0.000000
vn -1.000000 0.000000 0.000000
vn -1.000000 0.000000 0.000000
s 1
g Main_TV
usemtl lambert16SG
f 1/1/1 2/2/2 3/4/3
f 3/4/3 2/2/2 4/3/4
s 2
f 3/5/5 4/6/6 5/8/7
f 5/8/7 4/6/6 6/7/8
s 3
f 5/9/9 6/10/10 7/12/11
f 7/12/11 6/10/10 8/11/12
s 4
f 8/14/13 6/15/14 2/13/15
f 2/13/15 6/15/14 4/16/16
s 5
f 7/17/17 1/18/18 5/20/19
f 5/20/19 1/18/18 3/19/20
s 6
f 2/21/21 1/22/22 8/24/23
f 8/24/23 1/22/22 7/23/24
s 7
f 9/29/25 10/30/26 11/32/27
f 11/32/27 10/30/26 12/31/28
s 8
f 11/33/29 12/34/30 13/36/31
f 13/36/31 12/34/30 14/35/32
s 9
f 13/37/33 14/38/34 15/40/35
f 15/40/35 14/38/34 16/39/36
s 10
f 15/26/37 16/25/38 9/28/39
f 9/28/39 16/25/38 10/27/40
s 11
f 10/41/41 16/42/42 12/44/43
f 12/44/43 16/42/42 14/43/44
s 12
f 15/45/45 9/46/46 13/48/47
f 13/48/47 9/46/46 11/47/48
