# This file uses centimeters as units for non-parametric coordinates.

mtllib Grim_Bar_Kitchen3.mtl
g default
v 47.600442 -0.317266 39.664170
v 56.316197 -0.317266 39.664170
v 47.600442 2.699020 39.664170
v 56.316197 2.699020 39.664170
v 47.600442 2.699020 36.694925
v 56.316197 2.699020 36.694925
v 47.600442 -0.317266 37.858952
v 56.316197 -0.317266 37.858952
v 56.316197 2.272457 37.425412
v 47.600442 2.272457 37.425412
v 47.600442 2.272457 39.664170
v 56.316197 2.272457 39.664170
vt 0.204493 0.685789
vt 0.204493 0.000924
vt 0.238011 0.000924
vt 0.238011 0.685789
vt 0.000998 0.685789
vt 0.000998 0.000924
vt 0.242861 0.685789
vt 0.242861 0.000924
vt 0.476178 0.000924
vt 0.476178 0.685789
vt 0.835338 0.685789
vt 0.835338 0.000924
vt 0.892738 0.000924
vt 0.892738 0.685789
vt 0.480631 0.685789
vt 0.480631 0.000924
vt 0.622482 0.000924
vt 0.622482 0.685789
vt 0.765685 0.891279
vt 0.941602 0.891279
vt 0.999002 0.924797
vt 0.765685 0.924797
vt 0.765685 0.687784
vt 0.907535 0.687784
vt 0.585629 0.891279
vt 0.761546 0.891279
vt 0.761546 0.924797
vt 0.528229 0.924797
vt 0.619696 0.687784
vt 0.761546 0.687784
vt 0.626802 0.685789
vt 0.626802 0.000924
vt 0.830296 0.000924
vt 0.830296 0.685789
vn 0.000000 0.000000 1.000000
vn 0.000000 0.000000 1.000000
vn 0.000000 0.000000 1.000000
vn 0.000000 0.000000 1.000000
vn 0.000000 1.000000 0.000000
vn 0.000000 1.000000 0.000000
vn 0.000000 1.000000 0.000000
vn 0.000000 1.000000 0.000000
vn 0.000000 -0.863550 -0.504264
vn 0.000000 -0.863550 -0.504264
vn 0.000000 -0.360034 -0.932939
vn 0.000000 -0.360034 -0.932939
vn 0.000000 -1.000000 0.000000
vn 0.000000 -1.000000 0.000000
vn 0.000000 -1.000000 0.000000
vn 0.000000 -1.000000 0.000000
vn 1.000000 0.000000 0.000000
vn 1.000000 0.000000 0.000000
vn 1.000000 0.000000 0.000000
vn 1.000000 0.000002 0.000000
vn -1.000000 -0.000000 0.000000
vn -1.000000 0.000000 0.000000
vn -1.000000 0.000000 0.000000
vn -1.000000 0.000001 0.000000
vn 0.000000 -0.165110 -0.986275
vn 0.000000 -0.165110 -0.986275
vn -1.000000 0.000000 0.000000
vn -1.000000 -0.000000 0.000000
vn 0.000000 0.000000 1.000000
vn 0.000000 0.000000 1.000000
vn 1.000000 0.000000 0.000000
vn 1.000000 0.000000 0.000000
s 1
g Kitchen3 Kitchen
usemtl lambert6SG
f 11/1/1 12/2/2 3/4/3
f 3/4/3 12/2/2 4/3/4
s 2
f 3/7/5 4/8/6 5/10/7
f 5/10/7 4/8/6 6/9/8
s 3
f 5/11/9 6/12/10 10/14/11
f 10/14/11 6/12/10 9/13/12
s 4
f 7/15/13 8/16/14 1/18/15
f 1/18/15 8/16/14 2/17/16
s 5
f 12/19/17 9/20/18 4/22/19
f 4/22/19 9/20/18 6/21/20
s 6
f 11/26/21 3/27/22 10/25/23
f 10/25/23 3/27/22 5/28/24
s 3
f 10/31/11 9/32/12 7/34/25
f 7/34/25 9/32/12 8/33/26
s 6
f 1/30/27 11/26/21 7/29/28
f 7/29/28 11/26/21 10/25/23
s 1
f 1/5/29 2/6/30 11/1/1
f 11/1/1 2/6/30 12/2/2
s 5
f 2/23/31 8/24/32 12/19/17
f 12/19/17 8/24/32 9/20/18
