# This file uses centimeters as units for non-parametric coordinates.

mtllib Grim_Bar_Window1.mtl
g default
v 1.214970 3.105978 89.194606
v 2.943751 3.105978 89.194606
v 1.214970 11.605503 89.194606
v 2.943751 11.605503 89.194606
v 1.214970 11.605503 66.510098
v 2.943751 11.605503 66.510098
v 1.214970 3.105978 66.510098
v 2.943751 3.105978 66.510098
v 2.943751 3.105978 66.510098
v 2.510562 3.504923 67.574848
v 2.943751 3.105978 89.194606
v 2.510562 3.504923 88.129851
v 2.943751 11.605503 66.510098
v 2.510562 11.206558 67.574848
v 2.943751 11.605503 89.194606
v 2.510562 11.206558 88.129851
vt 0.073828 0.078355
vt 0.926172 0.078355
vt 0.926172 0.921645
vt 0.073828 0.921645
vt 0.029677 0.034673
vt 0.970323 0.034673
vt 0.970323 0.965327
vt 0.029677 0.965327
vt 0.082955 0.928571
vt 0.925040 0.928571
vt 0.925040 0.994956
vt 0.082955 0.994956
vt 0.000319 0.000998
vt 0.076377 0.000998
vt 0.076377 0.999002
vt 0.000319 0.999002
vt 0.033195 0.002675
vt 0.963347 0.002675
vt 0.963347 0.073886
vt 0.033195 0.073886
vt 0.936281 0.000998
vt 0.996762 0.000998
vt 0.996762 0.999001
vt 0.936281 0.999001
vn 0.000000 0.000000 1.000000
vn 0.000000 0.000000 1.000000
vn 0.000000 0.000000 1.000000
vn 0.000000 0.000000 1.000000
vn 0.000000 1.000000 0.000000
vn 0.000000 1.000000 0.000000
vn 0.000000 1.000000 0.000000
vn 0.000000 1.000000 0.000000
vn 0.000000 0.000000 -1.000000
vn 0.000000 0.000000 -1.000000
vn 0.000000 0.000000 -1.000000
vn 0.000000 0.000000 -1.000000
vn 0.000000 -1.000000 0.000000
vn 0.000000 -1.000000 0.000000
vn 0.000000 -1.000000 0.000000
vn 0.000000 -1.000000 0.000000
vn 1.000000 0.000000 0.000000
vn 1.000000 0.000000 0.000000
vn 1.000000 0.000000 0.000000
vn 1.000000 0.000000 0.000000
vn 0.677435 0.735583 0.000000
vn 0.677435 0.735583 0.000000
vn 0.677435 0.735583 0.000000
vn 0.677435 0.735583 0.000000
vn 0.926274 0.000000 0.376850
vn 0.926274 0.000000 0.376850
vn 0.926274 0.000000 0.376850
vn 0.926274 0.000000 0.376851
vn 0.677435 -0.735583 0.000000
vn 0.677435 -0.735583 0.000000
vn 0.677435 -0.735583 0.000000
vn 0.677435 -0.735583 0.000000
vn 0.926275 0.000000 -0.376849
vn 0.926275 0.000000 -0.376849
vn 0.926275 0.000000 -0.376849
vn 0.926275 0.000000 -0.376849
s 1
g Window1
usemtl lambert3SG
f 1/9/1 2/10/2 3/12/3
f 3/12/3 2/10/2 4/11/4
s 2
f 3/13/5 4/14/6 5/16/7
f 5/16/7 4/14/6 6/15/8
s 3
f 5/17/9 6/18/10 7/20/11
f 7/20/11 6/18/10 8/19/12
s 4
f 7/21/13 8/22/14 1/24/15
f 1/24/15 8/22/14 2/23/16
s 5
f 12/1/17 10/2/18 16/4/19
f 16/4/19 10/2/18 14/3/20
s 6
f 11/5/21 9/6/22 12/1/23
f 12/1/23 9/6/22 10/2/24
s 7
f 9/6/25 13/7/26 10/2/27
f 10/2/27 13/7/26 14/3/28
s 8
f 13/7/29 15/8/30 14/3/31
f 14/3/31 15/8/30 16/4/32
s 9
f 15/8/33 11/5/34 16/4/35
f 16/4/35 11/5/34 12/1/36
