# This file uses centimeters as units for non-parametric coordinates.

mtllib TV3.mtl
g default
v 27.791748 12.439857 42.614651
v 20.396946 12.439857 42.614651
v 27.791748 8.535402 41.891296
v 20.396946 8.535402 41.891296
v 27.791748 8.613634 41.657017
v 20.396946 8.613634 41.657017
v 27.791748 12.518089 42.380371
v 20.396946 12.518089 42.380371
v 24.408758 10.160810 42.081921
v 24.408758 10.160810 40.447285
v 24.408758 10.461301 42.081921
v 24.408758 10.461301 40.447285
v 24.033796 10.461301 42.081921
v 24.033796 10.461301 40.447285
v 24.033796 10.160810 42.081921
v 24.033796 10.160810 40.447285
vt 0.268795 0.022777
vt 0.529538 0.029310
vt 0.529538 0.111849
vt 0.268795 0.209184
vt 0.612076 0.029310
vt 0.612076 0.111849
vt 0.082388 0.022777
vt 0.082388 0.209184
vt 1.000000 0.764000
vt 0.000000 0.764000
vt 0.000000 0.236000
vt 1.000000 0.236000
vt 0.078117 0.775926
vt 0.078117 0.987579
vt 0.071411 0.987579
vt 0.071411 0.775926
vt 0.190957 0.775926
vt 0.190957 0.987579
vt 0.079204 0.987579
vt 0.079204 0.775926
vt 0.566026 0.203613
vt 0.555587 0.207099
vt 0.523356 0.033126
vt 0.533795 0.029640
vt 0.577858 0.207099
vt 0.567420 0.203613
vt 0.599651 0.029640
vt 0.610089 0.033126
vt 0.192035 0.987579
vt 0.192035 0.775926
vt 0.198740 0.775926
vt 0.198740 0.987579
vt 0.611483 0.102475
vt 0.611483 0.029640
vt 0.624872 0.029640
vt 0.624872 0.102475
vt 0.709581 0.031807
vt 0.709581 0.207524
vt 0.669274 0.207524
vt 0.669274 0.031807
vt 0.837041 0.770304
vt 0.837041 0.990914
vt 0.796486 0.990914
vt 0.796486 0.770304
vt 0.724663 0.990002
vt 0.724663 0.769391
vt 0.775267 0.769391
vt 0.775267 0.990002
vn 0.000000 -0.182164 0.983268
vn 0.000000 -0.182164 0.983268
vn 0.000000 -0.182164 0.983268
vn 0.000000 -0.182164 0.983268
vn 0.000000 -0.948515 -0.316732
vn 0.000000 -0.948514 -0.316735
vn 0.000000 -0.948515 -0.316732
vn 0.000000 -0.948514 -0.316735
vn 0.000000 0.182164 -0.983268
vn 0.000000 0.182164 -0.983268
vn 0.000000 0.182164 -0.983268
vn 0.000000 0.182164 -0.983268
vn -1.000000 0.000000 0.000000
vn -1.000000 0.000000 0.000000
vn -1.000000 0.000000 0.000000
vn -1.000000 0.000000 0.000000
vn 1.000000 0.000000 0.000000
vn 1.000000 0.000000 0.000000
vn 1.000000 0.000002 0.000000
vn 1.000000 0.000002 0.000000
vn 0.000000 0.948515 0.316732
vn 0.000000 0.948515 0.316732
vn 0.000000 0.948515 0.316732
vn 0.000000 0.948515 0.316732
vn 1.000000 0.000000 0.000000
vn 1.000000 0.000000 0.000000
vn 1.000000 0.000000 0.000000
vn 1.000000 0.000000 0.000000
vn 0.000000 1.000000 0.000000
vn 0.000000 1.000000 0.000000
vn 0.000000 1.000000 0.000000
vn 0.000000 1.000000 0.000000
vn -1.000000 0.000000 0.000000
vn -1.000000 0.000000 0.000000
vn -1.000000 0.000000 0.000000
vn -1.000000 0.000000 0.000000
vn 0.000000 -1.000000 0.000000
vn 0.000000 -1.000000 0.000000
vn 0.000000 -1.000000 0.000000
vn 0.000000 -1.000000 0.000000
vn 0.000000 0.000000 -1.000000
vn 0.000000 0.000000 -1.000000
vn 0.000000 0.000000 -1.000000
vn 0.000000 0.000000 -1.000000
vn 0.000000 0.000000 1.000000
vn 0.000000 0.000000 1.000000
vn 0.000000 0.000000 1.000000
vn 0.000000 0.000000 1.000000
s 1
g TV_3
usemtl lambert15SG
f 1/9/1 2/10/2 3/12/3
f 3/12/3 2/10/2 4/11/4
s 2
f 3/13/5 4/14/6 5/16/7
f 5/16/7 4/14/6 6/15/8
s 3
f 5/17/9 6/18/10 7/20/11
f 7/20/11 6/18/10 8/19/12
s 4
f 8/22/13 6/23/14 2/21/15
f 2/21/15 6/23/14 4/24/16
s 5
f 7/25/17 1/26/18 5/28/19
f 5/28/19 1/26/18 3/27/20
s 6
f 2/29/21 1/30/22 8/32/23
f 8/32/23 1/30/22 7/31/24
s 7
f 9/33/25 10/34/26 11/36/27
f 11/36/27 10/34/26 12/35/28
s 8
f 11/37/29 12/38/30 13/40/31
f 13/40/31 12/38/30 14/39/32
s 9
f 13/41/33 14/42/34 15/44/35
f 15/44/35 14/42/34 16/43/36
s 10
f 15/45/37 16/46/38 9/48/39
f 9/48/39 16/46/38 10/47/40
s 11
f 10/2/41 16/5/42 12/3/43
f 12/3/43 16/5/42 14/6/44
s 12
f 15/7/45 9/1/46 13/8/47
f 13/8/47 9/1/46 11/4/48
