# This file uses centimeters as units for non-parametric coordinates.

mtllib Grim_Bar_TV1.mtl
g default
v 59.505112 12.371488 91.422469
v 59.505112 12.371488 84.027663
v 60.228466 8.609228 91.422469
v 60.228466 8.609228 84.027663
v 60.462746 8.684611 91.422469
v 60.462746 8.684611 84.027663
v 59.739391 12.446871 91.422469
v 59.739391 12.446871 84.027663
v 60.037842 10.054652 87.683578
v 61.672478 10.054652 87.683578
v 60.037842 10.443386 87.683578
v 61.672478 10.443386 87.683578
v 60.037842 10.443386 87.308608
v 61.672478 10.443386 87.308608
v 60.037842 10.054652 87.308608
v 61.672478 10.054652 87.308608
vt 0.375000 0.000000
vt 0.375000 0.250000
vt 0.125000 0.000000
vt 0.125000 0.250000
vt 0.998652 0.730381
vt 0.018623 0.730381
vt 0.018623 0.262591
vt 0.998652 0.262591
vt 0.435470 0.224058
vt 0.435470 0.026514
vt 0.446177 0.026514
vt 0.446177 0.224058
vt 0.107929 0.989608
vt 0.107929 0.726088
vt 0.242000 0.726088
vt 0.242000 0.989608
vt 0.485565 0.001880
vt 0.501808 -0.003347
vt 0.551959 0.257494
vt 0.535716 0.262720
vt 0.612049 0.264216
vt 0.596172 0.259108
vt 0.645194 0.004142
vt 0.661071 0.009251
vt 0.336544 0.992840
vt 0.336544 0.953493
vt 0.777949 0.953493
vt 0.777949 0.992840
vt 0.702679 0.225190
vt 0.702679 0.035848
vt 0.747706 0.035848
vt 0.747706 0.225190
vt 0.795542 0.193816
vt 0.795542 0.038675
vt 0.831129 0.038675
vt 0.831129 0.193816
vt 0.890550 0.964684
vt 0.890550 0.744073
vt 0.943013 0.744073
vt 0.943013 0.964684
vt 0.836082 0.964684
vt 0.836082 0.744073
vt 0.886688 0.744073
vt 0.886688 0.964684
vt 0.560844 0.759673
vt 0.611450 0.759673
vt 0.611450 0.812136
vt 0.560844 0.812136
vn -0.982014 -0.188810 0.000000
vn -0.982014 -0.188807 0.000000
vn -0.982014 -0.188809 0.000000
vn -0.982014 -0.188806 0.000000
vn 0.306305 -0.951934 0.000000
vn 0.306296 -0.951936 0.000000
vn 0.306305 -0.951934 0.000000
vn 0.306296 -0.951937 0.000000
vn 0.982014 0.188808 0.000000
vn 0.982014 0.188808 0.000000
vn 0.982014 0.188808 0.000000
vn 0.982014 0.188808 0.000000
vn 0.000013 0.000000 -1.000000
vn 0.000001 0.000000 -1.000000
vn 0.000013 0.000000 -1.000000
vn 0.000000 0.000000 -1.000000
vn 0.000000 0.000000 1.000000
vn -0.000000 0.000000 1.000000
vn -0.000008 0.000000 1.000000
vn -0.000008 0.000000 1.000000
vn -0.306296 0.951937 0.000000
vn -0.306305 0.951934 0.000000
vn -0.306296 0.951936 0.000000
vn -0.306305 0.951934 0.000000
vn 0.000000 0.000000 1.000000
vn 0.000000 0.000000 1.000000
vn 0.000000 0.000000 1.000000
vn 0.000000 0.000000 1.000000
vn 0.000000 1.000000 0.000000
vn 0.000000 1.000000 0.000000
vn 0.000000 1.000000 0.000000
vn 0.000000 1.000000 0.000000
vn 0.000000 0.000000 -1.000000
vn 0.000000 0.000000 -1.000000
vn 0.000000 0.000000 -1.000000
vn 0.000000 0.000000 -1.000000
vn 0.000000 -1.000000 0.000000
vn 0.000000 -1.000000 0.000000
vn 0.000000 -1.000000 0.000000
vn 0.000000 -1.000000 0.000000
vn 1.000000 0.000000 0.000000
vn 1.000000 0.000000 0.000000
vn 1.000000 0.000000 0.000000
vn 1.000000 0.000000 0.000000
vn -1.000000 0.000000 0.000000
vn -1.000000 0.000000 0.000000
vn -1.000000 0.000000 0.000000
vn -1.000000 0.000000 0.000000
s 1
g tv1 TV_1
usemtl baked_lambert15SG_TV_1SG
f 1/5/1 2/6/2 3/8/3
f 3/8/3 2/6/2 4/7/4
s 2
f 3/9/5 4/10/6 5/12/7
f 5/12/7 4/10/6 6/11/8
s 3
f 5/13/9 6/14/10 7/16/11
f 7/16/11 6/14/10 8/15/12
s 4
f 8/18/13 6/19/14 2/17/15
f 2/17/15 6/19/14 4/20/16
s 5
f 7/21/17 1/22/18 5/24/19
f 5/24/19 1/22/18 3/23/20
s 6
f 2/25/21 1/26/22 8/28/23
f 8/28/23 1/26/22 7/27/24
s 7
f 9/29/25 10/30/26 11/32/27
f 11/32/27 10/30/26 12/31/28
s 8
f 11/33/29 12/34/30 13/36/31
f 13/36/31 12/34/30 14/35/32
s 9
f 13/37/33 14/38/34 15/40/35
f 15/40/35 14/38/34 16/39/36
s 10
f 15/41/37 16/42/38 9/44/39
f 9/44/39 16/42/38 10/43/40
s 11
f 10/45/41 16/46/42 12/48/43
f 12/48/43 16/46/42 14/47/44
s 12
f 15/3/45 9/1/46 13/4/47
f 13/4/47 9/1/46 11/2/48
