# This file uses centimeters as units for non-parametric coordinates.

mtllib Grim_Bar_Stove.mtl
g default
v 49.436684 2.748851 39.097482
v 52.107959 2.748851 39.097482
v 49.436684 2.748851 37.245393
v 52.107959 2.748851 37.245393
vt 0.999433 0.996826
vt -0.000567 0.995684
vt 0.000567 0.003173
vt 1.000567 0.004315
vn 0.000000 1.000000 0.000000
vn 0.000000 1.000000 0.000000
vn 0.000000 1.000000 0.000000
vn 0.000000 1.000000 0.000000
s 1
g Stove1
usemtl lambert11SG
f 1/1/1 2/2/2 3/4/3
f 3/4/3 2/2/2 4/3/4
