# This file uses centimeters as units for non-parametric coordinates.

mtllib Grim_Bar_Ceiling.mtl
g default
v 62.359929 13.828958 100.258588
v 0.737916 13.828958 100.258588
v 62.359929 13.828958 -0.536669
v 0.737916 13.828958 -0.536669
vt 0.000899 0.000998
vt 0.899688 0.000998
vt 0.899688 0.999002
vt 0.000899 0.999002
vn 0.000000 -1.000000 -0.000000
vn 0.000000 -1.000000 -0.000000
vn 0.000000 -1.000000 -0.000000
vn 0.000000 -1.000000 -0.000000
s 1
g Ceiling
usemtl lambert14SG
f 1/1/1 2/2/2 3/4/3
f 3/4/3 2/2/2 4/3/4
