# This file uses centimeters as units for non-parametric coordinates.

mtllib Grim_Bar_Taps.mtl
g default
v 48.441954 3.526992 23.373623
v 49.226904 3.526992 23.373623
v 48.441954 3.581150 23.603094
v 49.226904 3.581150 23.603094
v 48.113963 3.842351 22.443970
v 49.554896 3.842351 22.443970
v 48.113963 3.585968 22.443970
v 49.554896 3.585968 22.443970
v 56.411128 3.526992 23.513685
v 57.196078 3.526992 23.513685
v 56.411128 3.581150 23.743156
v 57.196078 3.581150 23.743156
v 56.083136 3.842351 22.584032
v 57.524069 3.842351 22.584032
v 56.083136 3.585968 22.584032
v 57.524069 3.585968 22.584032
vt 0.608891 0.444914
vt 0.608891 0.145693
vt 0.669587 0.145693
vt 0.669587 0.444914
vt 0.362996 0.569944
vt 0.362996 0.020662
vt 0.675056 0.444914
vt 0.675056 0.145693
vt 0.981646 0.020662
vt 0.981646 0.569944
vt 0.246818 0.346756
vt 0.268180 0.010022
vt 0.361046 0.010022
vt 0.266435 0.429874
vt 0.148709 0.429874
vt 0.127347 0.093139
vt 0.146964 0.010022
vt 0.241575 0.429874
vt 0.861437 0.881396
vt 0.861437 0.648049
vt 0.948614 0.648049
vt 0.948614 0.881396
vt 0.508257 0.978901
vt 0.508257 0.550545
vt 0.062400 0.881396
vt 0.062400 0.648049
vt 0.502758 0.550545
vt 0.502758 0.978901
vt 0.007875 0.346756
vt 0.029237 0.010022
vt 0.122103 0.010022
vt 0.027492 0.429874
vt 0.064964 0.488582
vt 0.094633 0.181137
vt 0.123075 0.109010
vt 0.143758 0.502617
vn 0.000000 -0.973261 0.229701
vn 0.000000 -0.973261 0.229703
vn 0.000000 -0.973261 0.229702
vn 0.000000 -0.973261 0.229703
vn 0.000000 0.975539 0.219829
vn 0.000000 0.975538 0.219831
vn 0.000000 0.975538 0.219831
vn 0.000000 0.975538 0.219832
vn 0.000000 -0.997994 -0.063311
vn 0.000000 -0.997994 -0.063311
vn 0.000000 -0.997994 -0.063311
vn 0.000000 -0.997994 -0.063310
vn 0.943029 0.000000 0.332710
vn 0.945427 -0.025773 0.324814
vn 0.878453 -0.451363 0.156820
vn 0.846013 -0.518907 0.122463
vn -0.943029 0.000000 0.332710
vn -0.878461 -0.451346 0.156821
vn -0.945427 -0.025772 0.324814
vn -0.846025 -0.518887 0.122465
vn 0.000000 -0.973261 0.229703
vn 0.000000 -0.973261 0.229702
vn 0.000000 -0.973261 0.229703
vn 0.000000 -0.973261 0.229701
vn 0.000000 0.975538 0.219832
vn 0.000000 0.975538 0.219833
vn 0.000000 0.975538 0.219833
vn 0.000000 0.975538 0.219833
vn 0.000000 -0.997994 -0.063311
vn 0.000000 -0.997994 -0.063311
vn 0.000000 -0.997994 -0.063311
vn 0.000000 -0.997994 -0.063311
vn 0.943029 0.000000 0.332710
vn 0.945427 -0.025769 0.324814
vn 0.878483 -0.451303 0.156825
vn 0.846052 -0.518842 0.122470
vn -0.943029 0.000000 0.332710
vn -0.878460 -0.451348 0.156822
vn -0.945427 -0.025772 0.324814
vn -0.846023 -0.518890 0.122465
s 1
g KitchenTaps
usemtl lambert7SG
f 1/1/1 2/2/2 3/4/3
f 3/4/3 2/2/2 4/3/4
s 2
f 3/7/5 4/8/6 5/10/7
f 5/10/7 4/8/6 6/9/8
s 3
f 7/5/9 8/6/10 1/1/11
f 1/1/11 8/6/10 2/2/12
s 4
f 8/12/13 6/13/14 2/11/15
f 2/11/15 6/13/14 4/14/16
s 5
f 7/15/17 1/16/18 5/18/19
f 5/18/19 1/16/18 3/17/20
s 6
f 9/19/21 10/20/22 11/22/23
f 11/22/23 10/20/22 12/21/24
s 7
f 11/25/25 12/26/26 13/28/27
f 13/28/27 12/26/26 14/27/28
s 8
f 15/23/29 16/24/30 9/19/31
f 9/19/31 16/24/30 10/20/32
s 9
f 16/30/33 14/31/34 10/29/35
f 10/29/35 14/31/34 12/32/36
s 10
f 15/33/37 9/34/38 13/36/39
f 13/36/39 9/34/38 11/35/40
