# This file uses centimeters as units for non-parametric coordinates.

mtllib Grim_Bar_TV8.mtl
g default
v 24.874184 12.371488 97.047409
v 32.268986 12.371488 97.047409
v 24.874184 8.609228 97.770760
v 32.268986 8.609228 97.770760
v 24.874184 8.684611 98.005035
v 32.268986 8.684611 98.005035
v 24.874184 12.446871 97.281685
v 32.268986 12.446871 97.281685
v 28.358522 10.054652 97.580132
v 28.358522 10.054652 99.214775
v 28.358522 10.443386 97.580132
v 28.358522 10.443386 99.214775
v 28.733484 10.443386 97.580132
v 28.733484 10.443386 99.214775
v 28.733484 10.054652 97.580132
v 28.733484 10.054652 99.214775
vt 0.255633 0.015354
vt 0.529634 0.002215
vt 0.529634 0.044866
vt 0.255633 0.087294
vt 0.572285 0.002215
vt 0.572285 0.044866
vt 0.183693 0.015354
vt 0.183693 0.087294
vt 0.995791 0.973110
vt -0.004209 0.973110
vt -0.004209 0.098443
vt 0.995791 0.098443
vt 0.010932 0.070128
vt 0.010932 0.019884
vt 0.012524 0.019884
vt 0.012524 0.070128
vt 0.055948 0.081220
vt 0.055948 0.014052
vt 0.090121 0.014052
vt 0.090121 0.081220
vt 0.545054 0.089009
vt 0.539660 0.090745
vt 0.523005 0.004121
vt 0.528399 0.002386
vt 0.551336 0.090745
vt 0.545942 0.089009
vt 0.562597 0.002386
vt 0.567991 0.004121
vt 0.040156 0.019884
vt 0.040156 0.070128
vt 0.038565 0.070128
vt 0.038565 0.019884
vt 0.568879 0.040022
vt 0.568879 0.002386
vt 0.577829 0.002386
vt 0.577829 0.040022
vt 0.900466 0.048234
vt 0.900466 0.006250
vt 0.911289 0.006250
vt 0.911289 0.048234
vt 0.986464 0.013178
vt 0.986464 0.067308
vt 0.973591 0.067308
vt 0.973591 0.013178
vt 0.972645 0.013179
vt 0.972645 0.067308
vt 0.960228 0.067308
vt 0.960228 0.013179
vn 0.000000 -0.188807 -0.982014
vn 0.000000 -0.188807 -0.982014
vn 0.000000 -0.188807 -0.982014
vn 0.000000 -0.188807 -0.982014
vn 0.000000 -0.951935 0.306300
vn 0.000000 -0.951932 0.306311
vn 0.000000 -0.951935 0.306300
vn 0.000000 -0.951931 0.306311
vn 0.000000 0.188807 0.982014
vn 0.000000 0.188807 0.982014
vn 0.000000 0.188807 0.982014
vn 0.000000 0.188807 0.982014
vn 1.000000 0.000000 0.000000
vn 1.000000 0.000000 0.000000
vn 1.000000 0.000000 0.000000
vn 1.000000 0.000000 0.000000
vn -1.000000 0.000000 0.000000
vn -1.000000 -0.000000 0.000000
vn -1.000000 -0.000001 0.000000
vn -1.000000 -0.000001 0.000000
vn 0.000000 0.951933 -0.306307
vn 0.000000 0.951935 -0.306300
vn 0.000000 0.951933 -0.306307
vn 0.000000 0.951935 -0.306300
vn -1.000000 0.000000 0.000000
vn -1.000000 0.000000 0.000000
vn -1.000000 0.000000 0.000000
vn -1.000000 0.000000 0.000000
vn 0.000000 1.000000 0.000000
vn 0.000000 1.000000 0.000000
vn 0.000000 1.000000 0.000000
vn 0.000000 1.000000 0.000000
vn 1.000000 0.000000 0.000000
vn 1.000000 0.000000 0.000000
vn 1.000000 0.000000 0.000000
vn 1.000000 0.000000 0.000000
vn 0.000000 -1.000000 0.000000
vn 0.000000 -1.000000 0.000000
vn 0.000000 -1.000000 0.000000
vn 0.000000 -1.000000 0.000000
vn 0.000000 0.000000 1.000000
vn 0.000000 0.000000 1.000000
vn 0.000000 0.000000 1.000000
vn 0.000000 0.000000 1.000000
vn 0.000000 0.000000 -1.000000
vn 0.000000 0.000000 -1.000000
vn 0.000000 0.000000 -1.000000
vn 0.000000 0.000000 -1.000000
s 1
g TV_8
usemtl lambert16SG
f 1/9/1 2/10/2 3/12/3
f 3/12/3 2/10/2 4/11/4
s 2
f 3/13/5 4/14/6 5/16/7
f 5/16/7 4/14/6 6/15/8
s 3
f 5/17/9 6/18/10 7/20/11
f 7/20/11 6/18/10 8/19/12
s 4
f 8/22/13 6/23/14 2/21/15
f 2/21/15 6/23/14 4/24/16
s 5
f 7/25/17 1/26/18 5/28/19
f 5/28/19 1/26/18 3/27/20
s 6
f 2/29/21 1/30/22 8/32/23
f 8/32/23 1/30/22 7/31/24
s 7
f 9/33/25 10/34/26 11/36/27
f 11/36/27 10/34/26 12/35/28
s 8
f 11/37/29 12/38/30 13/40/31
f 13/40/31 12/38/30 14/39/32
s 9
f 13/41/33 14/42/34 15/44/35
f 15/44/35 14/42/34 16/43/36
s 10
f 15/45/37 16/46/38 9/48/39
f 9/48/39 16/46/38 10/47/40
s 11
f 10/2/41 16/5/42 12/3/43
f 12/3/43 16/5/42 14/6/44
s 12
f 15/7/45 9/1/46 13/8/47
f 13/8/47 9/1/46 11/4/48
