# This file uses centimeters as units for non-parametric coordinates.

mtllib Grim_Bar_Freezer.mtl
g default
v 31.214987 -0.435207 28.573869
v 39.338501 -0.435207 28.573869
v 31.214987 8.577336 28.573869
v 39.338501 8.577336 28.573869
v 31.214987 8.577336 22.540365
v 39.338501 8.577336 22.540365
v 31.214987 -0.435207 22.540365
v 39.338501 -0.435207 22.540365
vt 0.000860 0.000998
vt 0.320713 0.000998
vt 0.320713 0.355856
vt 0.000860 0.355856
vt 0.140963 0.677429
vt 0.140963 0.357575
vt 0.378525 0.357575
vt 0.378525 0.677429
vt 0.325130 0.000998
vt 0.644984 0.000998
vt 0.644984 0.355856
vt 0.325130 0.355856
vt 0.000860 0.999002
vt 0.000860 0.679148
vt 0.238422 0.679148
vt 0.238422 0.999002
vt 0.623221 0.357575
vt 0.860783 0.357575
vt 0.860783 0.712433
vt 0.623221 0.712433
vt 0.382092 0.357575
vt 0.619654 0.357575
vt 0.619654 0.712433
vt 0.382092 0.712433
vn 0.000000 0.000000 1.000000
vn 0.000000 0.000000 1.000000
vn 0.000000 0.000000 1.000000
vn 0.000000 0.000000 1.000000
vn 0.000000 1.000000 0.000000
vn 0.000000 1.000000 0.000000
vn 0.000000 1.000000 0.000000
vn 0.000000 1.000000 0.000000
vn 0.000000 0.000000 -1.000000
vn 0.000000 0.000000 -1.000000
vn 0.000000 0.000000 -1.000000
vn 0.000000 0.000000 -1.000000
vn 0.000000 -1.000000 0.000000
vn 0.000000 -1.000000 0.000000
vn 0.000000 -1.000000 0.000000
vn 0.000000 -1.000000 0.000000
vn 1.000000 0.000000 0.000000
vn 1.000000 0.000000 0.000000
vn 1.000000 0.000000 0.000000
vn 1.000000 0.000000 0.000000
vn -1.000000 0.000000 0.000000
vn -1.000000 0.000000 0.000000
vn -1.000000 0.000000 0.000000
vn -1.000000 0.000000 0.000000
s 1
g Fridge Freezer
usemtl lambert7SG
f 1/1/1 2/2/2 3/4/3
f 3/4/3 2/2/2 4/3/4
s 2
f 3/5/5 4/6/6 5/8/7
f 5/8/7 4/6/6 6/7/8
s 3
f 5/9/9 6/10/10 7/12/11
f 7/12/11 6/10/10 8/11/12
s 4
f 7/13/13 8/14/14 1/16/15
f 1/16/15 8/14/14 2/15/16
s 5
f 2/17/17 8/18/18 4/20/19
f 4/20/19 8/18/18 6/19/20
s 6
f 7/21/21 1/22/22 5/24/23
f 5/24/23 1/22/22 3/23/24
